<svg width="244" height="49" viewBox="0 0 244 49" fill="none" xmlns="http://www.w3.org/2000/svg">
<path d="M6.59668 1.45814C10.9021 -1.6537 13.8659 0.973362 17.5205 2.36146C18.171 2.60903 18.8378 2.81609 19.5303 2.94252C29.6815 4.79965 43.1276 3.67387 53.8457 3.85756C55.9392 3.89862 58.0449 3.95221 60.2832 4.03822C61.4055 4.08215 62.5287 4.13194 63.8076 4.20814C65.2008 4.31492 66.0742 4.28484 69.2051 4.75599C72.255 5.35239 75.663 5.81183 79.2266 6.17494C79.6018 6.21281 79.7993 6.65827 79.9717 6.67592C81.5853 6.83899 84.41 6.60537 86.1113 6.7472C89.6433 7.04557 96.1905 7.27575 99.7998 7.94056C101.316 8.21467 102.912 8.41624 103.433 9.49135C103.996 9.59187 104.394 8.69694 104.55 8.66029C104.551 8.66126 104.553 8.66226 104.555 8.66322C104.739 8.62203 105.016 8.69983 105.304 8.81459C105.717 9.00292 106.153 9.2926 106.297 9.28041C106.33 9.27641 106.187 8.59034 106.709 8.83998C106.755 8.86145 106.673 9.31278 107.123 9.35853C107.228 9.37059 108.834 8.79947 109.256 8.78627C110.709 8.76371 114.053 9.50781 115.734 9.54408C115.983 9.55213 116.144 9.28938 116.416 9.29213C116.557 9.29335 116.759 9.58857 116.802 9.58803C116.995 9.58169 117.819 8.28489 117.481 10.8751C118.335 10.7255 118.104 9.8611 118.129 9.30385C119.058 9.23606 119.461 10.4588 119.716 9.16224C124.186 9.32024 128.347 9.20836 132.306 8.70814C132.272 8.49944 132.239 8.28989 132.206 8.08119C133.518 8.71667 133.654 7.23117 134.579 8.29799C134.949 7.94803 135.334 7.59062 135.714 7.23158C137.992 6.93442 140.623 6.22166 145.252 5.61635C148.668 5.18638 156.761 3.60401 162.519 3.06263C168.631 2.39411 174.474 1.99043 180.217 1.83217C180.832 1.81578 180.988 2.26048 181.969 2.24037C183.081 2.21725 184.564 1.66463 186.038 1.6476C186.801 1.6384 187.81 1.78962 188.827 1.91908C189.551 1.99636 190.25 2.07333 190.865 2.10365C191.239 2.12097 191.526 1.83983 191.567 1.84193C191.819 1.8575 191.824 2.30856 192.065 2.32631C192.354 2.3464 192.711 2.02122 193.041 2.05189C194.324 2.16297 195.7 2.1282 195.875 2.1476C196.657 2.2394 196.792 2.69397 196.855 2.70424C197.729 2.82407 197.435 2.40377 197.652 2.44349C198.783 2.66197 199.475 3.72326 201.163 2.97181C201.073 3.3319 200.984 3.69256 200.896 4.05287C202.073 4.41351 201.406 3.34063 201.676 3.19642C201.781 3.13305 204.381 3.65059 204.598 3.71888C205.301 3.9075 205.226 4.39299 205.286 4.41224C205.414 4.44769 207.325 4.25712 208.162 4.89662C209.116 5.64112 207.635 6.31747 207.857 6.56263C207.892 6.6003 209.029 6.77153 209.1 7.11342C209.181 7.47897 208.231 7.23567 208.207 7.37611C208.209 7.47108 209.591 8.53837 209.171 8.91322C208.828 9.29645 206.881 8.21053 206.376 8.33705C206.297 8.35903 206.31 8.9486 206.243 8.95717C205.978 8.93401 201.205 8.13069 201.028 8.05287C201.308 7.82523 201.588 7.59897 201.869 7.37416C201.549 7.30112 201.225 7.22976 200.897 7.16029C201.399 7.01338 201.878 6.86786 202.4 6.73353C201.994 4.47579 199.549 6.38504 199.376 7.45912C199.296 7.95162 200.366 9.36789 199.147 9.98158C199.306 10.128 199.463 10.2748 199.617 10.422C199.989 10.2539 200.391 10.0918 200.775 9.9308C200.554 9.76726 200.328 9.60438 200.1 9.44252C200.208 9.30472 200.317 9.16681 200.426 9.02943C201.142 8.87781 201.851 8.73528 202.588 8.60756C202.924 8.77349 202.78 9.19949 203.005 9.32338C205.834 10.9233 204.123 9.21085 206.067 9.80678C206.303 10.1008 206.541 10.3982 206.768 10.6945C206.886 9.71308 207.633 10.5119 208.791 10.3781C208.585 10.6532 208.38 10.9296 208.177 11.2062C209.775 11.4146 212.285 13.9198 212.016 11.9874C212.3 12.2378 212.61 12.4998 212.89 12.755C213.259 12.5784 213.647 12.4106 214.024 12.2413C214.397 12.4106 214.78 12.587 215.143 12.7599C215.089 12.9059 215.036 13.0524 214.982 13.1984C214.688 13.0877 214.368 12.9697 214.07 12.8624C214.131 13.389 214.203 13.9209 214.257 14.4474C214.504 14.4564 214.739 14.4615 214.989 14.4738C214.238 13.7055 215.71 13.484 216.221 13.0148C217.071 13.1024 217.212 14.039 217.432 14.1691C217.546 14.234 219.308 13.4106 218.234 14.672C218.928 14.7509 219.555 14.8005 220.064 14.7912C220.195 14.9705 220.306 15.1408 220.401 15.3029C219.84 15.8832 220.459 17.0375 219.676 17.0851C219.019 17.0871 219.052 16.3575 218.718 16.2287C218.393 16.1011 218.047 16.4585 217.648 16.3165C214.95 15.3341 212.254 14.1848 209.184 13.1095C208.577 12.8953 207.94 12.963 207.534 12.8283C207.066 12.6738 207.807 12.2597 207.157 12.2453C206.484 12.2363 206.245 12.6695 206.074 12.6408C205.972 12.6229 205.715 12.1292 205.419 12.0665C204.153 11.7902 202.25 11.8922 202.082 11.8673C201.868 11.8051 198.428 10.9806 198.249 10.9142C198.167 10.8665 198.489 9.31995 197.571 10.9162C197.33 10.9256 197.087 10.9359 196.843 10.9474C196.907 10.6377 196.973 10.3273 197.038 10.0177C195.5 11.0933 196.077 10.4662 194.68 10.4787C193.027 10.5045 190.985 10.4416 188.924 10.4415C187.093 10.4381 185.271 10.4317 183.731 10.5177C183.017 10.5579 182.738 10.9396 181.905 10.9865C181.163 11.0266 179.031 9.96593 179.535 11.506C177.767 10.2128 177.527 12.5444 176.63 11.1281C176.535 11.3421 176.429 11.5573 176.33 11.7716C175.322 10.9058 175.094 11.7086 174.043 11.8634C173.593 11.9309 174.066 10.9483 173.211 12.0578C173.036 11.9862 172.861 11.9143 172.688 11.8429C172.717 11.609 172.745 11.3747 172.773 11.1408C171.778 11.379 171.693 11.2637 171.856 12.1261C171.353 11.993 170.883 11.859 170.375 11.7287C170.329 12.0172 170.284 12.3063 170.238 12.5949C170.521 13.08 181.44 11.8373 182.953 11.5812C184.475 12.0909 187.203 11.5577 188.936 11.464C189.287 11.4459 189.594 11.4442 189.841 11.4679C190.471 11.5297 190.725 12.1749 191.647 12.2677C192.543 12.3594 193.735 11.8176 194.22 11.8214C195.834 11.7256 203.711 12.8173 198.28 12.9874C198.402 13.3164 198.52 13.6463 198.636 13.9757C200.842 13.1547 200.007 13.7153 201.734 14.0841C202.438 14.2347 204.332 13.8776 203.958 15.2658C202.577 15.2612 201.209 14.5812 200.049 14.4503C199.922 14.4333 198.488 14.9144 197.79 14.672C197.178 14.4523 197.736 13.1272 196.213 14.5402C195.309 12.9729 194.6 14.2953 194.333 14.4259C193.865 14.6527 193.849 13.9135 193.384 13.8087C192.873 13.694 192.506 14.1746 192.441 14.1759C191.972 14.1666 190.141 14.1724 188.966 14.1154C188.455 14.0866 188.087 14.0333 188.037 13.9406C188.172 13.808 188.308 13.6756 188.443 13.5431C187.555 13.3437 187.753 14.096 187.523 14.1896C187.353 14.1892 187.183 14.1889 187.014 14.1886C187.078 14.0312 187.144 13.8733 187.209 13.716C186.179 13.7646 187.009 14.2953 185.512 14.3058C184.567 14.3123 183.63 13.7352 183.527 13.7804C183.5 13.7937 183.808 14.1899 183.421 14.2521C182.777 14.3541 181.7 14.3698 181.568 13.8253C181.269 13.9109 181.308 14.4449 181.269 14.4591C181.067 14.5142 178.009 14.7849 177.452 14.839C175.939 14.9782 174.197 14.9342 172.563 15.1046C172.389 15.1218 172.483 14.7734 172.309 14.7931C172.013 14.825 170.672 15.4358 170.438 15.4884C169.904 15.6109 168.521 15.482 168.3 15.6535C168.27 15.6776 168.758 16.1125 168.231 16.2912C167.653 16.4887 167.929 15.8441 167.896 15.84C166.672 15.7077 165.954 16.1978 165.116 16.3488C164.847 16.3967 164.335 15.9675 163.951 16.1398C163.908 16.1593 164.032 16.5844 163.991 16.6105C163.432 16.8875 162.845 16.1309 162.576 16.1037C161.952 16.0351 162.342 16.5954 162.311 16.6037C161.915 16.6607 161.338 16.5014 160.729 16.5949C157.989 17.0168 155.719 17.3586 152.821 17.8048C152.458 17.8607 151.962 17.523 151.908 17.5294C151.739 17.5619 151.864 18.0405 151.381 18.1134C150.357 18.266 149.441 18.4541 148.503 18.5939C148.314 18.6215 148.164 18.1818 148.021 18.1935C147.798 18.2146 147.372 18.5341 146.954 18.712C146.31 18.937 145.725 19.0069 145.573 18.2257C144.611 19.7292 143.679 18.7695 142.804 18.9728C140.745 19.4613 137.936 20.4047 136.101 20.5656C135.706 20.6027 135.465 20.2595 135.252 20.2765C134.856 20.3182 132.748 20.8664 132.609 20.8175C132.358 20.7322 132.295 19.0531 131.328 20.6535C130.678 20.8388 130.672 20.1428 130.53 20.1222C129.429 19.9718 128.502 21.5971 128.576 20.173C127.353 20.6675 126.569 21.4973 125.954 20.212C126 20.8546 125.434 21.277 124.675 21.0656C125.387 19.9455 125.229 19.2724 127.021 19.3488C127.049 19.3515 127.031 19.8133 127.058 19.8195C127.301 19.8337 127.831 19.5578 128.254 19.546C128.678 19.5343 128.473 19.872 128.641 19.8507C128.794 19.8296 128.753 19.3857 128.98 19.3576C129.714 19.2696 130.345 19.074 130.755 19.0167C131.008 18.9824 131.352 19.3333 131.557 19.3068C132.327 19.2075 133.94 18.6537 134.929 18.5148C135.136 18.4877 135.121 18.9381 135.585 18.8888C135.639 18.8824 135.752 18.396 136.122 18.2267C136.497 18.0564 136.857 18.2145 137.098 18.1163C137.301 18.0331 137.134 17.6528 137.568 17.5343C137.869 17.4645 142.355 16.7228 142.751 16.716C143.154 16.7251 143.467 17.2445 143.694 17.1271C143.733 17.1 143.698 16.5472 143.841 16.4787C144.487 16.1717 145.414 15.9211 146.57 15.756C148.474 15.4783 151.676 15.2629 153.619 14.9611C159.174 14.065 164.278 13.3033 169.715 12.8507C169.807 12.7491 169.899 12.6466 169.992 12.5451C169.43 12.5737 168.906 12.6017 168.329 12.6349C168.309 12.3759 168.289 12.1166 168.269 11.8576C167.508 11.8654 167.655 12.4731 167.699 12.8419C167.414 12.7032 167.134 12.5636 166.833 12.4269C166.648 13.3466 164.75 12.8834 163.786 12.9699C163.147 13.0242 162.448 13.4352 162.104 13.4415C161.4 13.4537 161.369 12.8991 161.312 12.8927C161.201 12.8907 160.293 13.4792 159.561 13.5431C158.522 13.6348 158.292 12.7945 156.929 13.7062C155.021 13.5064 152.947 14.06 151.058 14.465C151.28 13.6208 149.708 14.6586 149.014 14.7648C148.142 14.8979 147.299 15.0068 146.482 15.0783C141.091 15.746 137.473 16.6495 134.108 16.9074C133.586 16.957 133.103 16.5603 132.821 16.6193C132.668 16.6512 132.681 17.2065 132.449 17.1671C132.408 17.1553 132.305 16.6533 131.883 16.6349C130.861 16.5954 128.361 17.7217 127.634 16.7785C124.119 17.2213 120.413 17.4386 116.7 17.5011C116.611 17.2884 116.522 17.0753 116.434 16.8624C115.678 17.925 112.909 17.1842 111.496 17.1447C109.347 17.1007 106.651 17.1571 104.521 17.0402C104.211 17.0224 103.912 17.0036 103.63 16.9826C103.108 16.9436 102.712 16.6038 102.22 16.5695C102.008 16.5553 101.715 16.9283 101.496 16.9132C99.0384 16.747 95.7928 16.1465 93.3926 16.0324C87.9449 15.7683 82.9561 15.517 77.7812 15.1486C74.3054 14.8999 70.9212 14.5898 67.7061 14.1193C50.0067 13.2588 37.5508 14.164 22.7295 13.3585C22.4881 13.3475 22.5145 12.8933 22.3271 12.8839C21.2282 12.8265 18.7608 13.1139 17.5146 13.0441C17.3859 13.037 17.2476 13.0183 17.1035 12.9923C16.1234 12.8172 14.9274 12.3199 14.5977 12.9162C15.4099 13.1976 16.2285 13.4159 17.0801 13.5919C19.8244 14.1682 22.6698 14.272 25.4775 14.5812C25.737 14.6097 25.7573 15.0422 25.7891 15.0519C26.3781 15.2187 26.0118 14.6122 26.8828 14.6095C27.178 14.6111 29.7967 16.0579 29.5176 14.6759C30.1314 15.2439 34.6416 15.6172 35.5078 15.4484C35.7738 15.3975 35.5935 14.9867 35.6465 14.9669C35.8767 14.8815 35.9699 15.4448 36.1729 15.463C36.7082 15.5077 38.1031 15.076 38.3623 15.0831C38.9545 15.0981 40.7613 15.5818 41.5635 15.4845C42.2977 15.396 42.1685 14.8078 42.7939 14.7619C43.2908 14.7271 42.7461 15.2137 43.8594 15.3761C44.4012 15.4558 46.339 15.1245 46.8096 15.129C47.2872 15.1339 47.7906 15.4895 48.4453 15.4689C49.387 15.44 51.4012 15.2629 52.3701 15.1593C52.4267 15.1533 52.5684 14.6993 52.7061 14.7091C52.9893 14.7309 52.9043 15.2932 53.125 15.3527C53.3496 15.411 57.1513 15.3815 57.8242 15.3995C58.2616 15.4088 58.5972 15.0781 58.8457 15.0851C59.0417 15.0921 59.0553 15.5618 59.252 15.5704C59.3032 15.5693 59.8691 15.1731 60.3867 15.1935C60.9035 15.2114 62.8135 15.6528 63.0771 15.6701C63.2275 15.6775 63.0748 15.3373 63.5186 15.3634C63.9572 15.3904 64.1844 15.8358 64.4424 15.8566C65.0322 15.9043 65.6685 15.5712 66.4912 15.6574C66.792 15.6892 67.1578 15.7476 67.4355 15.8107C68.2692 16.0527 68.1753 16.4375 68.2432 16.464C68.4671 16.5454 68.629 16.074 68.7061 16.0734C69.0299 16.0795 69.8285 16.0968 70.1182 16.1144C70.4791 16.1372 70.5726 16.6197 70.9561 16.6681C71.2434 16.7025 71.8723 16.3195 72.5312 16.3683C74.0161 16.4775 75.8059 16.5508 77.2949 16.6818C77.7383 16.7205 77.7764 17.1507 77.9121 17.172C78.6255 17.283 79.0623 16.8344 79.2676 16.8546C80.7253 16.9992 83.3315 17.8962 84.7236 18.0304C85.2873 18.0862 87.795 17.865 89.2129 17.9953C89.3746 18.0098 89.2066 18.3365 89.3896 18.2931C89.8279 18.1888 89.8215 17.507 90.04 17.5382C90.1455 17.556 90.3687 17.9507 90.6758 18.004C92.2697 18.2807 93.3971 18.0404 94.1357 18.1007C97.4788 18.3745 100.902 18.6808 104.327 19.0812C107.862 19.5016 111.34 19.8098 114.625 19.9669C115.31 19.9994 116.192 19.6237 117.214 20.0372C117.241 20.2491 117.269 20.4612 117.297 20.673C117.337 20.4661 117.376 20.2588 117.416 20.0519C118.616 19.9593 119.018 19.696 120.241 19.9581C120.344 19.9815 120.666 20.9422 120.847 19.7423C122.028 20.5967 121.386 19.7295 122.251 19.632C123.097 19.5326 123.97 19.7716 124.809 19.7921C125.29 20.2021 123.397 21.2741 123.253 21.2706C123.042 21.2726 122.809 20.6832 122.616 20.6564C122.039 20.5767 121.466 21.0577 121.323 20.5275C120.575 21.0989 121.509 20.8079 121.428 21.3146C120.91 21.1123 120.416 20.9064 119.896 20.6974C119.625 22.4294 116.811 20.146 116.992 21.4552C116.773 21.1878 116.552 20.9201 116.332 20.6515C115.264 22.2681 114.752 21.0926 113.427 20.5431C113.511 20.7575 113.594 20.9722 113.685 21.1867C113.647 21.274 112.476 21.5548 112.934 20.6788C111.678 21.7985 111.802 19.8361 110.662 21.1906C110.008 21.3311 110.455 20.5356 109.287 20.4699C108.609 20.4305 107.743 20.7972 106.958 20.7628C106.778 20.7531 106.738 20.2707 106.586 20.2579C106.433 20.2462 106.318 20.706 106.13 20.7023C105.74 20.6943 105.259 20.3204 105.009 20.3292C104.828 20.3348 104.561 20.5851 104.174 20.6876C104.078 20.7116 103.976 20.7273 103.866 20.7296C101.87 20.7794 102.519 20.2496 102.223 20.0226C101.904 19.784 101.601 20.538 100.943 20.3966C100.878 20.3808 101.087 19.9124 100.869 19.9142C100.692 19.9157 100.564 20.4337 99.9795 20.4894C99.7394 20.5056 96.1829 20.3881 95.6475 20.3722C94.8217 20.3379 93.0139 19.7953 92.166 19.756C91.8393 19.7395 91.4691 20.1441 91.123 20.1242C89.9758 20.0574 88.1478 19.9338 86.709 19.8419C85.4097 19.7594 83.2006 18.7089 82.4531 19.5089C80.6452 19.5149 80.2599 18.765 80.125 18.7472C79.7627 18.697 79.563 19.1612 79.1035 19.1525C75.3937 19.0757 71.03 18.6318 67.0947 17.9386C63.3871 17.4521 61.2998 17.52 58.9795 17.4611C45.4634 17.4 32.1312 17.5797 18.7852 16.8742C18.7418 17.084 18.6987 17.2942 18.6553 17.504C20.2254 17.6989 22.0733 18.1296 23.627 18.2619C25.7137 18.439 28.813 17.641 30.3115 19.1212C29.6939 19.2332 28.6904 18.6544 28.6885 19.3966C29.8082 19.4783 30.9018 19.5572 32.0176 19.6349C31.9921 19.2912 31.9659 18.9473 31.9404 18.6037C33.0874 18.5291 34.2845 18.6283 35.4434 18.6007C35.646 18.596 35.5086 18.2822 35.6846 18.2833C35.8811 18.2858 35.7441 18.5976 35.7793 18.6037C36.2775 18.6159 36.4317 18.2983 36.4922 18.3038C36.6461 18.3194 36.5217 18.6227 36.9639 18.716C37.8003 18.8903 38.4083 18.0886 38.1914 19.4367C38.4595 19.441 38.7261 19.4452 38.9912 19.4494C39.0645 19.0826 39.1432 18.7155 39.2188 18.3488C40.8581 19.8594 41.6568 17.2638 42.5381 19.3429C42.8364 19.031 43.15 18.7184 43.4561 18.4064C43.6224 18.7764 43.789 19.1468 43.9541 19.5167C43.9908 19.2015 44.0268 18.8857 44.0635 18.5704C45.6878 18.8225 47.4156 18.4607 48.9785 18.5119C50.0438 18.5473 50.3339 18.6744 51.2754 18.6593C53.4298 18.6252 51.292 19.2327 53.0605 19.9259C52.9708 19.5379 52.8767 19.1488 52.79 18.7609C53.0888 18.6218 53.392 18.4829 53.6865 18.3439C53.8882 18.6615 54.0866 18.9794 54.2852 19.297C55.2353 17.669 55.7841 18.9976 55.9219 18.9992C56.0294 18.9957 56.3714 18.0153 57.4551 18.8634C57.0276 17.5117 58.2673 18.8642 58.3818 18.8771C58.4858 18.8838 59.7373 18.6033 60.2451 18.6271C60.6454 18.6447 61.4918 18.9548 62.1084 18.9601C62.6236 18.9637 62.6097 18.51 62.6445 18.5021C63.3214 18.4887 62.8859 18.8278 63.3613 18.8644C63.8715 18.9032 64.2457 18.5336 64.3721 18.5753C64.4269 18.5971 64.217 19.0113 64.4688 19.0675C64.9895 19.1911 65.8699 19.0146 66.9111 19.087C67.0717 19.0903 67.2232 19.1003 67.3564 19.1232C67.5885 19.1626 67.8331 19.5653 68.0928 19.6144C68.4924 19.6883 68.7477 19.2393 68.9795 19.2853C69.059 19.3025 69.4803 20.1097 70.1494 20.0783C70.2799 20.0678 70.8221 18.5596 71.0508 20.8224C71.1244 20.516 71.1984 20.209 71.2715 19.9025C73.5366 19.3779 73.9268 21.9562 75.1143 19.798C76.7024 20.1866 75.5265 20.9684 75.6904 21.1183C75.7982 21.2128 76.3466 21.0154 76.4043 21.0333C76.505 21.0687 76.4651 21.3477 76.5781 21.3556C78.658 21.4618 77.7763 20.8594 78.4561 20.5704C80.0709 19.8758 81.1818 21.7353 78.4893 21.0187C78.4783 21.1755 78.467 21.3326 78.4561 21.4894C79.1377 21.3878 80.8422 21.5674 80.2217 22.3283C79.7269 22.9349 75.6929 22.2307 77.9316 23.2785C78.4418 23.5144 78.7524 22.9451 79.5898 24.1095C80.1903 24.2074 80.3633 22.7819 81.1436 23.4054C81.0392 22.8976 80.9359 22.3889 80.833 21.881C81.9765 21.2974 83.2953 22.2472 84.165 22.0119C84.4614 21.9309 85.6275 19.602 85.2627 21.9718C85.7587 21.8492 88.0424 22.4011 88.4834 22.2081C88.5896 22.1604 88.7853 20.899 90.2617 21.4152C90.358 21.5793 90.4545 21.7442 90.5508 21.9083C89.1573 22.3031 91.5547 22.8927 90.8379 24.0646C90.6411 23.5123 89.5707 23.1285 89.4092 22.8478C89.1343 22.3647 90.0516 21.8038 88.9121 21.9132C88.1009 23.8914 90.1851 23.0651 89.7803 24.9611C91.3096 24.1418 91.4178 25.0005 91.752 25.0529C93.183 25.27 94.1003 25.1161 95.4453 25.4171C95.7992 25.0426 93.3716 24.339 93.0557 24.4933C94.2523 23.1616 92.3199 22.9963 91.4639 23.7824C91.4166 23.3584 91.3687 22.9338 91.3213 22.5099C92.3714 22.7909 93.4027 22.9617 94.4766 22.6749C94.5366 22.8357 94.5973 22.9966 94.6572 23.1574C94.4072 23.3809 94.1579 23.6053 93.9092 23.8292C94.7623 24.2647 94.3076 23.0094 95.4131 24.1495C95.4765 23.6783 95.5398 23.2067 95.6035 22.7355C96.7183 22.9577 97.8332 23.1849 98.9482 23.4201C99.6005 22.5095 101.754 23.0323 101.256 24.2287C102.122 24.3861 101.095 23.6451 101.941 23.4142C102.31 23.3143 103.014 23.3395 103.158 23.6847C102.976 24.8446 101.926 24.8997 101.546 25.6769C101.622 25.7991 102.634 25.7789 103.683 25.8517C105.008 25.9445 106.323 26.1356 106.03 26.8732C106.391 27.0685 106.285 26.3525 106.991 26.2277C108.917 25.8813 111.879 27.4602 113.479 25.7716C111.742 24.7164 111.126 25.7119 109.746 25.6652C108.84 25.6531 103.439 25.3555 104.753 24.2218C104.54 24.3604 104.325 24.4991 104.108 24.6369C104.024 24.4436 103.938 24.2502 103.854 24.0568C103.769 23.864 103.683 23.6704 103.598 23.4777C103.701 23.4779 103.805 23.4773 103.908 23.4777C104.385 23.4792 104.856 23.4793 105.32 23.4767C105.421 23.855 105.523 24.2334 105.625 24.6115C105.709 24.3552 105.793 24.0983 105.877 23.8419C106.117 23.8102 106.344 23.7771 106.592 23.7453C106.498 24.0543 106.403 24.3637 106.312 24.673C106.676 24.7576 107.048 24.8415 107.41 24.924C107.344 24.4957 107.278 24.0671 107.213 23.6388C108.943 23.6664 108.312 23.882 109.228 24.7384C109.941 24.8671 108.791 23.9786 110.31 23.8712C112.035 23.7349 110.864 24.9646 113.125 24.8019C113.167 24.5932 113.208 24.3837 113.25 24.1749C113.732 24.4079 114.24 24.64 114.725 24.8683C114.669 24.6045 114.613 24.3401 114.558 24.0763C115.556 24.2172 117.007 23.7523 117.309 24.7833C116.296 24.2689 116.249 26.0558 116.517 26.3947C117.074 27.147 125.414 26.4497 127.021 26.2072C129.063 26.0104 130.689 26.4251 132.437 25.3078C131.096 24.7884 126.74 25.7592 125.854 25.2794C125.767 25.2306 125.71 23.5955 125.269 25.4669C123.532 25.2394 121.475 25.8157 119.29 25.7531C119.357 25.2801 119.421 24.8062 119.489 24.3331C120.843 25.3436 122.013 23.109 121.878 24.9503C122.144 24.9456 122.406 24.9392 122.666 24.9328C122.658 24.6165 122.65 24.2998 122.643 23.9835C123.021 23.9742 123.436 23.9614 123.826 23.9474C123.837 24.2638 123.849 24.5812 123.86 24.8976C124.191 24.8857 124.503 24.8727 124.838 24.8576C124.858 24.5406 124.879 24.2233 124.898 23.9064C125.914 24.5326 129.096 22.527 127.777 24.5197C128.246 24.4838 128.701 24.4458 129.148 24.4044C129.126 24.1741 129.103 23.9424 129.08 23.712C129.277 23.6626 129.471 23.613 129.662 23.5626C129.619 23.7775 129.575 23.9933 129.53 24.2081C130.379 23.7489 131.365 24.744 131.857 23.9503C131.449 23.8424 131.056 23.7298 130.646 23.6163C131.424 23.8352 132.701 23.0372 132.811 23.0167C133.185 22.9607 133.449 23.3955 133.848 23.3585C134.204 23.3238 134.107 22.9748 134.175 22.9767C136.163 23.0196 135.793 25.0507 136.277 22.6203C136.433 22.9113 136.589 23.2028 136.745 23.4933C136.825 23.2107 136.904 22.928 136.979 22.6456C137.561 22.5569 138.135 22.4638 138.719 22.3634C138.445 22.0196 138.171 21.6751 137.897 21.3302C138.717 20.9786 139.286 21.6581 139.375 21.6574C139.621 21.6496 139.618 21.1435 139.691 21.1251C143.275 20.352 141.204 21.2686 143.437 22.673C143.943 21.8135 143.11 21.2465 142.856 20.5421C143.826 20.6853 144.06 20.4217 145.062 20.2706C145.324 20.2325 145.676 20.5764 145.843 20.5538C145.986 20.5336 146.371 20.0383 146.733 19.9855C146.852 19.968 146.98 19.96 147.116 19.9581C147.557 19.9646 148.1 20.0501 148.643 19.9591C149.2 19.8691 150.909 19.2636 152.206 19.0353C152.749 18.9421 152.687 19.3145 152.829 19.2912C152.895 19.2797 153.239 18.7893 153.605 18.7277C156.51 18.237 159.583 18.1221 162.504 17.837C164.571 17.6344 166.646 17.1324 168.71 17.0363C169.158 17.016 168.941 17.344 169.138 17.3429C169.206 17.3416 169.242 16.7903 169.93 16.9699C170.179 17.0347 169.92 17.4336 170.162 17.4386C170.279 17.4398 170.305 16.9587 170.991 16.8117C172.195 16.5469 172.939 17.15 173.031 17.1281C173.235 17.0815 173.156 16.6884 173.43 16.6613C174.799 16.5285 175.906 16.4168 177.124 16.34C177.668 16.2997 181.588 16.1065 181.786 16.1769C182.261 16.3239 181.841 17.1618 182.448 17.1193C182.614 16.9059 182.782 16.6929 182.95 16.4796C182.672 16.3265 182.395 16.1734 182.121 16.0206C182.865 16.2691 183.748 15.873 184.277 15.8771C184.378 15.8789 185.321 16.2366 185.812 16.1876C185.606 16.3467 185.402 16.506 185.2 16.6652C185.275 16.7965 185.35 16.9284 185.425 17.0597C186.416 16.8412 187.377 16.8318 188.385 16.8478C188.746 16.8531 188.627 17.1769 188.995 17.1837C188.997 17.1838 188.999 17.1837 189.001 17.1837C191.161 17.2389 190.671 15.8994 192.661 18.463C191.983 18.2021 189.448 18.5062 189.068 18.4357C189.053 18.4323 189.035 18.4215 189.015 18.4054C188.693 18.1444 187.82 16.395 188.186 18.4435C186.179 18.4612 187.905 17.2328 186.044 17.5245C186.087 17.7901 186.129 18.0559 186.172 18.3214C185.506 18.5002 185.026 18.6434 184.623 18.1808C184.531 19.4744 182.268 18.7648 181.072 18.8849C179.291 19.0551 177.363 19.4319 175.59 19.5587C174.999 19.601 174.644 19.1123 174.562 19.1154C174.449 19.1238 174.153 19.5804 173.934 19.5939C173.134 19.6395 170.58 19.0219 170.024 20.2912C174.893 20.0054 179.792 19.8501 184.648 19.757C184.088 19.2198 188.017 19.0512 189.022 19.0509C189.132 19.0505 189.205 19.0521 189.23 19.0548C189.469 19.0799 189.273 19.5058 189.344 19.5314C189.869 19.7092 190.307 19.095 190.471 19.0958C190.595 19.0969 190.842 19.3874 191.297 19.3878C191.379 19.388 191.407 19.0835 191.496 19.0831C192.084 19.0935 192.649 19.1137 193.247 19.1359C193.283 19.1403 193.413 19.5924 193.56 19.5997C193.706 19.6062 193.872 19.1694 193.909 19.1681C194.37 19.1926 195.179 19.5319 195.608 19.5675C195.76 19.5779 195.675 19.2444 195.853 19.2609C196.394 19.3117 196.166 19.9343 196.831 19.8283C197.056 19.7934 197.076 19.3027 197.504 19.4103C197.803 19.4872 197.679 20.3472 197.722 20.3878C197.784 20.4311 198.876 19.8628 199.148 20.4757C198.23 21.8769 199.926 20.6576 199.944 20.0216C200.33 20.2385 200.719 20.4606 201.088 20.6837C201.247 20.547 201.414 20.4118 201.582 20.2775C203.079 21.279 204.148 21.0621 205.67 21.6808C205.744 21.7074 206.96 22.4147 206.834 22.6183C205.955 22.769 205.191 22.5909 204.849 21.7667C203.711 22.9096 203.945 21.8304 202.562 21.7365C202.092 21.7081 202.002 22.0731 201.948 22.0675C200.178 21.9097 197.375 21.7378 196.269 20.5646C195.91 20.8291 197.1 21.0508 196.615 21.2257C196.335 21.2539 190.216 21.3645 192.201 20.1837C191.997 20.2131 191.792 20.2437 191.585 20.2745C191.355 21.4539 190.348 21.1734 190.47 19.9943C190.373 20.2352 190.276 20.4767 190.18 20.7179C189.99 20.9221 189.765 21.0317 189.447 21.0988C189.35 21.1191 189.214 21.1367 189.046 21.1505C187.1 21.3007 180.995 21.0929 180.63 21.2677C180.629 21.5478 180.628 21.8285 180.627 22.1085C183.399 22.3096 186.088 21.7649 189.058 22.132C189.493 22.1858 189.926 22.2621 190.355 22.3663C190.259 22.1036 190.161 21.8407 190.062 21.5783C191.419 21.9465 192.792 22.349 194.1 22.7882C192.71 23.1665 190.578 23.5103 189.069 23.2101C189.01 23.1986 188.951 23.1865 188.895 23.173C188.616 23.1061 188.815 22.7371 188.751 22.6935C188.583 22.5814 188.409 23.2186 187.82 23.2882C187.234 23.3572 185.766 22.9304 185.617 22.9454C185.352 22.9761 184.661 23.7164 184.228 23.716C183.658 23.7146 184.03 23.257 183.916 23.2492C183.424 23.215 182.985 23.4485 182.606 23.424C182.048 23.387 180.86 22.626 180.491 23.799C180.891 23.8409 181.321 23.8826 181.709 23.9259C179.518 24.3987 177.81 22.9665 175.687 24.1974C175.262 25.6231 177.003 25.3632 175.55 26.0226C175.815 25.9916 176.083 25.9614 176.354 25.9308C176.407 25.6339 176.46 25.3361 176.513 25.0392C177.002 25.2313 177.461 25.4257 177.932 25.6203C177.791 25.3623 177.65 25.1037 177.51 24.8458C179.162 24.5889 180.812 24.2759 181.452 25.672C181.478 25.3299 181.505 24.9868 181.529 24.6447C183.046 25.0193 185.358 23.5305 184.954 25.4376C185.025 25.3358 185.096 25.2338 185.167 25.132C186.11 25.5035 185.698 24.7248 186.052 24.63C186.179 24.603 187.949 24.9828 187.169 25.5578C188.935 25.9643 188.379 24.1966 188.871 24.1124C188.938 24.1622 189.008 24.2052 189.081 24.2413C190.215 24.8294 191.899 23.7656 191.109 25.0626C191.271 25.117 191.431 25.1714 191.59 25.2267C192.136 24.145 192.633 25.3965 193.175 25.8341C193.364 25.8669 193.551 25.9006 193.735 25.9347C193.875 25.5735 194.032 25.2135 194.183 24.8537C195.85 26.7132 195.678 21.9093 196.155 25.9855C196.009 26.214 195.862 26.4435 195.717 26.673C195.41 26.7622 195.101 26.8531 194.805 26.9474C195.991 27.1352 197.151 27.3556 198.297 27.6134C199.592 28.9282 200.603 27.8538 201.991 29.0587C202.162 28.9862 202.332 28.9142 202.501 28.8429C202.147 29.6979 201.637 29.4429 202.563 30.0753C202.501 30.722 201.808 30.6462 201.597 30.0978C201.546 29.963 202.293 29.6189 201.571 29.4474C201.074 29.3354 201.827 30.2661 200.388 29.6994C200.415 29.8642 200.441 30.0297 200.467 30.1945C200.309 30.1603 200.148 30.127 199.985 30.0939C199.903 29.7098 199.811 29.3245 199.728 28.9415C199.27 29.4009 198.932 30.0895 198.109 29.8195C198.372 29.625 198.158 28.8561 197.709 28.8126C197.677 29.0741 197.644 29.3363 197.612 29.5978C196.559 29.6446 196.987 28.9145 196.051 29.4288C195.983 29.2122 195.915 28.995 195.845 28.7785C195.274 29.5873 193.48 30.0663 193.868 28.7941C193.3 30.0208 192.264 29.4128 191.894 28.3986C191.856 28.6594 191.819 28.9209 191.782 29.1818C191.57 29.2298 191.356 29.2784 191.141 29.3283C191.023 29.1682 190.904 29.0082 190.783 28.8488C190.628 29.0055 190.48 29.1628 190.329 29.3204C190.24 29.0577 190.149 28.7948 190.057 28.5324C189.811 28.8469 189.565 29.1627 189.319 29.4796C189.26 29.3989 189.199 29.3181 189.139 29.2374C189.034 29.1107 188.93 28.9833 188.826 28.8566C188.809 29.4044 187.176 29.5477 186.734 29.1954C186.604 29.3566 186.477 29.5184 186.339 29.6798C186.267 29.4202 186.196 29.1601 186.124 28.9005C186.025 29.1107 185.926 29.3212 185.828 29.5314C185.59 29.3268 185.353 29.1225 185.118 28.9181C184.203 30.2142 184.162 29.0935 183.946 29.1056C183.529 29.1289 182.19 29.9602 181.973 29.9249C181.749 29.8889 181.636 29.4332 181.444 29.3947C178.39 28.7576 179.699 29.9559 179.086 30.1691C178.758 30.2857 178.512 29.865 178.227 29.922C177.752 30.0152 175.287 30.6778 175.157 30.63C174.943 30.5576 175.352 28.5204 174.689 29.0695C174.707 30.1534 173.238 29.1263 173.971 30.6056C173.398 30.4994 172.769 30.3981 172.185 30.296C172.318 31.5761 171.561 30.7875 170.769 30.9054C169.671 31.0654 167.233 32.0848 167.239 30.7648C167.009 31.0857 166.756 31.4098 166.518 31.7326C164.693 31.4606 162.987 32.0577 161.272 32.2716C157.461 32.7087 154.067 33.3135 148.925 33.8722C147.967 33.9264 146.701 34.1193 145.27 34.3742C145.019 34.4181 144.958 33.99 144.772 34.0226C143.824 34.193 141.157 35.1183 139.573 35.3244C139.082 35.3901 138.757 35.0236 138.596 35.0343C138.046 35.0672 138.278 35.586 138.028 35.6154C137.624 35.6681 135.486 35.5 134.759 35.5421C134.396 35.567 134.054 36.0576 133.614 35.9777C133.577 35.9709 133.585 35.5171 133.554 35.5099C132.782 35.5521 133.292 35.8824 133.035 35.8937C131.196 35.9716 129.261 36.1417 127.312 36.171C126.804 36.1798 126.083 35.8989 125.658 35.8888C125.498 35.8857 125.803 36.2162 125.246 36.213C125.056 36.2115 124.98 35.7668 124.771 35.7462C123.885 35.6588 123.581 37.1055 122.802 35.9689C121.286 36.0865 118.75 36.4569 117.368 36.4367C117.054 36.4324 116.908 36.165 116.607 36.1632C116.394 36.1622 116.006 36.5622 115.666 36.5578C115.318 36.5528 114.814 36.1474 114.175 36.1378C113.502 36.1277 112.632 36.3199 112.492 36.3117C112.312 36.3024 112.251 35.808 112.069 35.8048C111.52 35.795 109.999 36.1939 109.295 36.1994C108.53 36.2054 108.061 35.9318 107.816 35.9191C107.58 35.9089 107.271 36.3026 107.161 36.298C106.991 36.2908 106.987 35.804 106.771 35.7912C106.415 35.7717 106.023 36.0478 105.479 36.0109C104.579 35.9506 103.668 35.8796 102.736 35.798C94.9507 35.1278 86.8426 34.7134 78.5273 33.8439C77.5013 33.7351 76.8937 34.0364 75.374 33.7609C74.7572 33.6475 75.0597 33.1688 74.5693 33.2228C74.3501 33.2472 74.3704 33.6454 74.0947 33.6408C72.8783 33.6195 71.4897 33.1116 70.9619 33.0607C70.7529 33.0407 70.4626 33.459 70.0293 33.4171C68.3896 33.258 66.5865 33.0038 64.7344 32.6915C64.7894 32.694 64.4862 32.6535 64.2188 32.632C63.9088 32.6055 63.5703 32.5846 63.2188 32.5675C62.4865 32.5322 61.734 32.5147 60.957 32.5138C59.3217 32.5115 56.7266 32.7067 54.7549 32.7169C49.2967 32.7479 43.3409 32.5963 38.2988 32.5578C30.9733 32.5042 23.674 32.7015 16.3574 32.0109C16.049 31.9821 15.7458 31.9514 15.4482 31.9201C15.7348 32.0211 16.0361 32.1147 16.3506 32.2013C19.7757 33.1615 24.1802 33.2378 27.8135 33.4386C39.1908 34.1095 51.783 33.4177 62.7197 33.7257C63.152 33.7447 63.5664 33.7663 63.9219 33.7912C64.1871 33.8078 64.4696 33.838 64.5488 33.8468C68.28 34.455 72.3198 34.895 75.8496 35.3566C76.059 35.3839 76.5215 35.0739 76.9707 35.1427C77.0678 35.1604 78.2131 35.8678 78.6113 35.8995C78.3072 34.7629 79.8035 35.8557 80.2861 35.8566C80.8949 35.8582 82.1861 35.374 83.5684 35.7619C84.8222 36.1126 84.4512 36.5227 84.5195 36.5538C84.9582 36.7498 85.1493 36.0669 85.4941 36.0138C86.9298 35.8068 93.9625 36.5456 95.8477 36.6994C96.3422 36.7362 96.3288 37.1751 96.4395 37.1847C96.7332 37.2062 97.1798 36.7997 97.6494 36.8341C98.4954 36.8973 99.4305 37.3838 99.8887 37.422C100.548 37.4765 101.578 37.3849 102.59 37.338C103.359 37.3164 104.111 37.3032 104.732 37.3527C105.171 37.3873 105.104 37.841 105.304 37.8566C106.223 37.928 108.562 37.5603 109.679 37.6212C111.473 37.7249 113.353 38.1113 115.191 38.0167C115.306 38.2244 115.42 38.4324 115.534 38.6398C115.73 38.4311 115.924 38.2213 116.116 38.0119C119.273 38.2532 122.487 37.779 125.714 37.6544C126.085 37.6441 127.949 37.9232 128.258 37.8986C128.512 37.8803 128.719 37.3588 129.113 37.4015C129.657 37.4605 129.237 38.4633 130.084 38.1134C130.311 38.018 130.041 37.6294 130.506 37.4572C130.676 37.41 133.654 36.9094 133.84 36.9015C134.119 36.9136 134.478 37.7553 134.552 37.7648C134.928 37.8133 134.819 37.1448 135.06 37.048C135.761 36.7617 136.77 37.0598 136.89 37.0294C138.302 36.6798 140.803 35.6361 142.267 35.6329C142.47 35.6336 142.556 36.1291 142.594 36.1408C142.837 36.1939 142.838 35.6049 143.045 35.5441C144.142 35.231 145.857 35.2258 146.758 35.1349C146.862 35.1229 147.022 34.8071 147.203 34.797C148.199 34.7563 147.948 35.2612 148.011 35.2687C148.135 35.2936 148.263 34.7726 148.547 34.6964C148.689 34.6581 148.853 34.6241 149.02 34.5968C150.485 34.3865 152.283 34.1267 153.273 33.9845C154.195 33.854 154.267 34.4094 154.329 34.4113C154.456 34.4097 154.727 33.9084 155.286 33.7619C156.351 33.4818 156.29 33.9393 156.728 33.8497C156.762 33.844 156.642 33.4272 157.108 33.3097C158.027 33.0757 160.177 33.2109 161.183 33.0763C161.559 33.0244 161.603 32.601 162.009 32.548C162.633 32.4629 164.122 32.7688 164.242 32.7579C164.274 32.7518 164.307 32.273 164.494 32.255C164.696 32.2366 164.921 32.4624 165.076 32.4474C165.969 32.3603 167.442 31.4137 167.146 33.1466C167.39 32.7057 167.642 32.2641 167.901 31.8234C169.787 31.7725 171.62 31.4972 173.526 31.3195C173.941 31.2807 174.31 31.5873 174.673 31.5558C175.053 31.522 176.591 30.9248 176.877 30.9044C177.356 30.8663 180.077 30.7221 180.406 30.7531C181.066 30.8072 181.757 31.4948 182.005 31.3507C182.214 31.2344 182.007 30.8423 182.412 30.7199C183.113 30.508 184.372 30.9921 184.572 30.9806C184.665 30.9751 184.482 30.6683 185.354 30.63C185.828 30.6089 186.093 30.9456 186.268 30.9415C186.318 30.9389 186.246 30.3869 187.162 30.4474C187.801 30.4904 188.087 30.913 188.155 30.9142C188.258 30.9157 188.499 30.4573 188.917 30.4679C188.991 30.47 189.07 30.4745 189.152 30.4816C190.064 30.5672 191.444 31.0324 192.162 31.0939C192.317 31.1061 192.288 30.553 192.904 30.6281C193.341 30.6835 193.242 31.1174 193.402 31.1427C193.65 31.1821 194.085 30.6685 194.645 30.7247C195.413 30.7318 200.428 31.9751 200.594 32.2277C200.745 32.356 200.938 32.4024 200.971 32.6515C200.854 32.8598 200.737 33.0695 200.622 33.2785C200.046 32.3476 200.162 33.3034 199.962 33.3244C199.674 33.3515 198.627 33.0584 198.33 33.2228C198.228 33.2827 198.36 33.7925 197.838 33.9708C197.285 34.1636 197.132 33.2751 196.786 34.4249C196.184 33.0315 195.275 34.348 196.135 34.8078C196.667 35.0122 201.078 36.2252 201.842 36.5802C202.523 36.8127 203.894 36.8576 204.746 37.2599C205.222 37.4778 206.556 38.0631 206.274 38.631C206.757 38.9091 206.447 38.1105 206.587 38.0724C206.842 37.9743 208.437 39.0993 208.908 39.2736C210.604 39.8292 213.626 40.7644 218.353 41.6037L215.876 41.1652C216.159 41.3013 216.428 41.4575 216.681 41.6378C216.545 41.7763 216.407 41.9139 216.271 42.0519C216.177 42.0827 216.042 42.0779 215.879 42.0538L217.699 42.3761C217.798 42.1073 217.898 41.8384 217.997 41.5695C218.716 41.6728 218.386 42.5257 218.29 42.7824C218.064 42.7269 217.836 42.6707 217.612 42.6144C217.635 42.5529 217.657 42.4904 217.68 42.4288C215.708 42.2284 213.694 41.6501 213.29 42.0997C214.224 42.3644 215.314 42.626 216.549 42.8204C218.569 43.3464 220.719 43.8613 223.025 44.2921C223.068 43.6339 227.53 44.3383 227.726 44.6359C227.607 44.9573 227.487 45.2788 227.366 45.5997C224.947 44.0109 224.932 45.6772 223.377 44.5099C222.697 44.3726 222.802 44.9505 222.445 44.9894C218.94 45.3363 222.593 43.8831 220.035 43.8341C220.593 44.7785 218.529 44.6136 217.658 44.4962C217.534 44.4808 216.618 44.1792 215.846 43.922C211.722 43.299 208.412 42.1085 207.398 41.2931C206.317 40.791 205.635 41.1248 204.834 40.9542C204.242 40.8334 204.549 40.5243 204.294 40.423C203.771 40.2185 203.218 41.3159 203.447 39.6007C203.031 39.6828 202.637 39.7785 202.247 39.881C202.324 39.6288 202.4 39.3763 202.477 39.1242C202.269 39.061 202.046 38.9962 201.841 38.9386C201.708 39.174 201.576 39.4102 201.445 39.6466C200.873 39.1202 201.31 38.582 201.368 37.8253C201.231 37.7373 201.09 37.6491 200.945 37.5617C200.694 38.0905 200.449 38.622 200.207 39.1544C199.556 38.9574 198.904 38.7812 198.207 38.6173C198.206 38.3509 198.204 38.0832 198.201 37.8165C198.157 38.0754 198.113 38.335 198.069 38.5939C196.879 38.4544 195.631 38.3644 194.329 38.3214C193.972 38.7095 195.961 39.2037 196.092 39.257C196.912 39.4737 199.041 39.412 198.846 40.34C199.447 39.7364 200.794 40.2287 200.964 41.1525C200.37 40.9389 199.757 40.7418 199.128 40.5617C199.086 40.8732 199.043 41.1849 198.999 41.4962C198.464 40.0977 198.279 40.1353 197.258 41.1857C197.32 40.7693 197.383 40.352 197.445 39.9357C196.643 41.2895 195.824 38.6978 195.585 40.4913C195.254 40.309 194.934 40.1315 194.591 39.9562C193.785 40.1267 194.945 41.5531 191.919 40.8732C191.707 40.8283 191.768 40.37 191.443 40.3937C191.351 40.4021 190.795 41.0545 189.757 40.9884C189.591 40.978 189.575 40.5786 189.399 40.5294C189.359 40.5178 189.314 40.515 189.267 40.5187C188.731 40.5537 187.972 41.0867 188.365 39.923C186.386 39.5748 187.229 40.6208 186.629 41.0499C186.217 41.3354 186.288 40.5726 185.935 40.7511C185.503 40.9734 185.822 41.7339 184.102 41.4152C184.304 41.3588 184.484 41.3022 184.677 41.2462C184.576 41.0396 184.475 40.8327 184.375 40.6261C183.386 41.1473 183.459 40.4155 183.021 41.5978C182.297 41.0916 181.674 41.0657 180.691 41.1886C178.842 41.4298 179.787 42.6623 177.614 41.0353C177.265 41.2871 176.923 41.5397 176.587 41.7921C176.001 41.313 176.436 40.6656 175.586 40.5744C176.316 41.7846 174.471 41.4123 174.245 42.5314C174.202 42.2697 174.158 42.0079 174.114 41.7462C173.936 41.7547 173.735 41.7642 173.547 41.7736C173.557 41.9847 173.566 42.1962 173.576 42.4074C173.315 42.2619 173.058 42.1159 172.804 41.9708C172.629 42.1899 172.459 42.4097 172.288 42.629C171.949 42.205 171.615 41.7809 171.285 41.3576C171.093 41.3386 170.902 41.3196 170.714 41.3009C170.792 41.6115 170.87 41.9229 170.948 42.2335C170.708 42.1427 170.443 42.0533 170.191 41.964C170.515 42.4613 170.359 43.0765 169.614 43.1105C169.007 43.1395 169.615 42.0145 168.314 42.5578C168.228 42.5975 168.112 43.3738 166.895 43.5919C165.435 43.8583 166.103 43.2439 165.841 43.2462C165.79 43.2475 165.385 43.6723 164.973 43.7677C164.742 43.8215 164.493 43.5327 164.463 43.5363C164.328 43.5645 164.321 44.0086 164.125 44.0451C163.631 44.1336 162.935 43.992 162.473 44.0685C162.252 44.1038 162.078 44.3877 161.983 44.4035C161.833 44.4248 161.608 44.0506 161.45 44.0714C160.885 44.1507 160.256 45.5784 159.735 43.7912C159.463 45.5415 158.035 43.6928 158.289 44.8038C157.534 44.7058 156.248 45.1741 154.781 45.4874C153.337 45.7995 151.71 45.9133 151.676 44.9513C151.054 45.9745 150.733 46.0396 150.491 45.921C150.458 45.8093 150.414 45.5956 150.375 45.6115C150.265 45.6557 150.376 45.9586 150.266 45.962C149.988 45.9736 149.502 45.9286 148.87 46.0607C148.914 45.7832 148.955 45.5061 148.992 45.2306C148.319 45.2907 148.698 45.8317 147.941 46.1232C146.431 46.6886 146.956 46.0691 146.57 45.4533C146.813 46.0786 144.669 46.4608 144.378 46.4318C144.226 46.4095 144.659 45.4453 143.309 46.0158C143.442 46.256 143.575 46.4963 143.708 46.7365C142.984 46.5279 141.255 47.3353 140.906 47.3068C140.733 47.2952 139.623 45.3508 139.178 47.1251C139.049 46.8809 138.92 46.6363 138.792 46.3917C138.057 46.8355 137.311 47.2707 136.546 47.6994C136.349 47.2496 136.15 46.7994 135.964 46.3478C135.718 46.3821 135.469 46.4162 135.218 46.4494C135.439 46.8437 135.662 47.2377 135.886 47.631C134.279 47.6632 132.461 48.5184 132.003 47.1378C131.702 47.4318 131.375 47.7274 131.081 48.0177C130.827 47.5673 130.575 47.1151 130.324 46.6632C128.799 46.9064 128.846 47.2149 127.827 47.7843C127.845 47.4147 127.863 47.0446 127.881 46.6749C127.169 47.2387 125.795 47.7912 124.745 47.8927C124.235 47.9421 123.335 47.4613 123.227 47.5079C123.117 47.5605 121.958 49.5758 121.797 47.8517C120.089 48.638 119.291 47.8491 118.62 47.8644C118.172 47.8736 117.961 48.2851 117.443 48.3204C116.707 48.3713 116.005 48.155 115.58 48.172C115.34 48.183 115.282 48.5845 115.115 48.5929C114.325 48.6304 114.805 48.2335 113.995 48.2326C113.921 48.2346 113.311 48.7053 112.633 48.6124C112.244 48.561 111.34 47.9628 111.25 47.9591C110.875 47.9496 111.12 49.0738 109.893 47.7238C109.918 47.9359 109.945 48.1483 109.971 48.3605C108.376 48.8021 108.181 47.845 107.867 47.7589C107.827 47.7513 107.415 48.0859 107.185 48.0197C106.814 47.9077 106.697 47.4013 106.615 47.3722C106.327 47.2752 105.306 47.4165 104.676 46.882C104.691 48.3042 102.377 48.6094 102.001 46.963C101.885 47.0356 101.769 47.1085 101.653 47.1808C101.396 47.3901 101.137 47.5993 100.878 47.8097C100.756 47.5343 100.632 47.2586 100.508 46.9835C100.396 47.2372 100.284 47.4914 100.172 47.7453C99.7459 47.1283 99.31 46.5129 98.8652 45.8986C98.7898 46.4739 98.7155 47.0498 98.6406 47.6251C98.5096 47.5491 98.3785 47.4733 98.2471 47.3976C98.1746 46.9307 98.1008 46.4631 98.0264 45.9962C97.8478 46.0713 97.6683 46.1463 97.4893 46.2218C97.4233 46.5511 97.3567 46.8808 97.291 47.2101C96.3358 47.5306 97.0254 44.389 95.0439 47.0646C94.7782 46.7854 94.5093 46.5064 94.2393 46.2277C93.845 47.4854 93.2849 46.6796 92.7842 46.796C92.4315 46.8786 92.4233 47.3861 91.9473 47.3722C91.4706 47.3583 91.5115 46.8744 91.4746 46.8693C91.0863 46.8197 90.7681 47.2317 90.4844 47.132C90.4413 47.1118 90.3608 46.5355 89.9951 46.4806C89.6269 46.4258 89.3736 47.0275 88.8242 46.8849C88.5423 46.8123 88.483 46.323 88.2314 46.2677C87.0333 46.0001 85.6722 48.3976 84.8857 45.4357C84.6592 45.7954 83.0614 47.0098 82.3975 46.8995C81.3679 46.7249 81.7975 46.1744 81.3906 46.047C81.3315 46.028 81.0054 46.2034 80.1279 46.1173C79.9709 46.1018 79.9876 46.4264 79.9648 46.4298C78.9385 46.3642 76.9264 45.978 75.7607 45.8439C75.6559 45.8338 75.0422 46.6887 74.2031 45.4064C72.7399 46.1894 70.2753 44.0316 68.2109 45.1456C67.9408 45.1429 67.6544 44.7839 67.5352 44.7804C66.506 44.751 66.752 45.7827 64.6035 44.0333C64.7222 44.5542 64.1073 44.9223 63.3203 44.7619C63.0809 44.7129 62.9301 44.6406 62.835 44.5568C62.9565 44.5164 63.0234 44.4512 63.0684 44.3781C62.9035 44.3765 62.7186 44.4405 62.5312 44.5265C62.1221 44.7013 61.7005 44.9663 60.9082 44.9474C60.3529 44.9329 59.4658 44.3334 59.3213 44.3292C59.2608 44.3329 58.5801 44.9511 58.5186 44.9552C58.1609 44.9683 57.9366 44.6722 57.6299 44.6662C56.5771 44.6447 55.2838 45.4554 55.5293 43.962C55.2222 44.2744 54.9371 44.5869 54.6328 44.8995C53.5151 43.2909 52.6444 45.4842 52.4229 43.9308C52.22 44.2492 52.0145 44.5675 51.8076 44.8859C46.9106 44.6799 41.924 44.4697 36.9453 44.2228C36.7329 44.719 34.5689 44.5035 34.4502 44.423C33.9485 44.0611 34.5093 42.9831 33.4609 43.2111C33.3355 43.6855 33.2102 44.1605 33.084 44.6349C31.7506 44.7626 32.4049 44.3013 31.8926 43.9669C31.6754 44.021 31.737 44.3924 31.4434 44.4132C29.8338 44.5265 26.569 44.4616 24.8154 44.4396C24.464 44.4354 24.5264 44.0911 24.417 44.087C24.1182 44.0819 23.499 44.4998 22.9014 44.4816C20.8598 44.4166 18.3613 44.2562 15.8867 44.0324C13.8368 43.8468 11.8519 43.6217 10.1328 43.3781C9.87755 43.3408 9.8651 42.9278 9.69629 42.8995C9.46208 42.8625 8.90055 43.1703 8.66016 43.1242C8.41805 43.0811 8.27929 42.7608 8.03027 42.712C6.8812 42.4862 5.27386 42.9357 4.05566 41.9435C3.96137 41.8589 2.72066 40.1294 2.69922 40.0158C2.56603 39.3598 3.79334 38.4148 1.91992 37.3556C3.69355 36.6326 3.22788 35.1471 1.05762 34.297C2.17955 34.184 3.31452 34.0661 4.42285 33.9425C4.43389 33.7701 4.44502 33.5973 4.45605 33.4249C3.50933 32.514 2.50832 32.1706 0.991211 31.9943C1.04688 31.8375 1.10422 31.6802 1.16211 31.5236C2.55803 30.8114 4.20933 30.7568 5.27344 29.7199C3.82475 28.8331 2.36616 27.9371 0.938477 27.0343C1.02513 26.9135 1.10041 26.792 1.18359 26.671C1.91777 26.3905 3.48425 26.2911 4.09863 26.0187C6.41113 24.9806 2.17386 25.0346 2.91016 24.3624C5.29186 24.531 7.64935 24.6746 10.0205 24.8097C10.1256 24.3059 1.09592 22.3739 1.2998 20.7775C2.04687 20.7194 2.79481 20.6594 3.53906 20.5968C3.22982 20.1761 2.92747 19.7554 2.62402 19.3341C2.72584 19.2131 2.82102 19.0912 2.91797 18.9699C4.17698 18.7339 5.4367 18.4906 6.69531 18.2433C2.74951 18.359 1.67656 18.0072 0 14.7863C0.427541 14.7088 0.532579 14.6391 0.695312 14.5656C1.59822 16.6049 5.31882 16.1972 7.41797 15.9015C7.03505 15.3031 5.2097 15.6536 4.85254 15.2833C4.75367 15.1769 5.14504 14.7966 4.91113 14.5773C4.2877 14.0089 1.59627 13.1498 2.02832 12.5187C2.32346 12.122 6.74933 11.7979 7.62207 11.88C5.61632 11.0201 3.6153 10.6866 1.59473 9.63099C3.02474 8.43613 4.1649 6.93687 6.49219 6.99232C7.21747 6.36188 2.44324 5.15247 2.33301 4.76869C3.23052 4.43142 4.05056 4.0863 4.91992 3.74135C4.20376 3.80538 3.50629 3.86843 2.78711 3.92787C2.7935 3.79647 2.80025 3.66474 2.80664 3.53334C4.66739 3.03928 6.38967 2.01009 8.50684 2.19252C8.47459 1.49371 7.20592 1.49781 6.59668 1.45814ZM235.568 46.0451C235.791 45.349 236.976 46.0256 237.626 46.0031C237.351 46.3534 237.079 46.7055 236.812 47.0587C236.673 47.0209 236.535 46.9844 236.4 46.9484C237.027 46.3444 236.168 46.2025 235.568 46.0451ZM228.747 44.9718C229.071 44.2218 232.716 44.8135 233.111 45.0431C233.222 45.1516 233.337 45.2618 233.448 45.3712C232.631 46.3234 232.737 45.5308 232.125 45.4953C232.089 45.4944 232.041 45.7476 232.028 45.7462C231.883 45.7293 231.827 45.3974 231.698 45.3722C231.456 45.3265 231.187 45.5875 230.784 45.4913C230.473 45.4166 230.568 44.9323 230.457 44.923C230.343 44.9127 229.234 46.0849 228.812 45.4337C228.76 45.3567 228.726 45.2858 228.711 45.2208L229.52 45.3146C229.454 45.2179 229.466 45.1344 229.542 45.0636L228.747 44.9718ZM99.0342 44.9669C98.4176 43.9248 97.7126 44.7324 96.6318 44.4816C96.6195 44.6906 96.607 44.9004 96.5947 45.1095C97.077 44.6364 98.2274 45.0517 99.0342 44.9669ZM225.273 43.132C224.919 43.2725 224.562 43.4105 224.205 43.546C224.086 43.2313 223.972 42.9157 223.858 42.6007C224.233 42.5935 224.61 42.5842 224.987 42.5714C225.082 42.7582 225.177 42.9455 225.273 43.132ZM202.083 41.2413C203.618 41.6366 204.947 42.0944 207.712 43.1486C207.713 43.1491 207.715 43.15 207.716 43.1505C207.538 43.7025 206.695 43.2562 206.304 43.0822C206.326 43.2048 206.349 43.3281 206.372 43.4513C205.459 42.9526 204.294 42.251 203.856 43.2882C203.357 43.2457 203.905 42.4111 203.799 42.2521C203.748 42.1881 202.996 42.5098 202.8 41.716C202.697 41.6837 202.592 41.6514 202.489 41.6203C202.355 41.9632 202.221 42.3071 202.088 42.6505C202.093 42.1823 202.092 41.7122 202.083 41.2413ZM218.226 43.0304C217.64 42.978 217.081 42.9043 216.549 42.8204C216.197 42.729 215.849 42.64 215.505 42.548L218.226 43.0304ZM219.11 42.007C220.556 42.1903 222.062 42.3558 223.612 42.4787H223.614C223.261 43.0469 221.527 42.9837 220.754 42.8605C220.723 42.8516 221 42.5683 220.456 42.4796C220.288 42.4572 218.441 43.2877 219.11 42.007ZM123.029 39.4572C123.701 40.4741 120.539 40.6027 119.464 40.3624C119.21 40.3063 118.766 39.7394 118.582 39.8087C118.47 40.0161 118.356 40.2237 118.242 40.4308C118.104 39.712 116.077 40.4884 115.239 40.8478C115.17 40.5831 115.1 40.3176 115.033 40.0529C114.745 40.1483 114.454 40.2433 114.161 40.337C114.207 40.0768 114.253 39.8161 114.299 39.5558C114.07 39.8627 113.838 40.1699 113.604 40.4757C112.719 40.7897 113.312 39.3858 112.643 39.8019C111.914 40.2635 113.036 41.1664 113.003 41.7179C113.621 41.6028 114.926 41.3299 115.556 41.3302C115.899 41.3309 115.499 42.3147 116.998 41.2072C117.306 41.4784 117.652 41.7493 117.978 42.0187C118.599 41.6042 119.174 41.1859 119.796 40.7638C119.91 41.1307 120.025 41.4978 120.141 41.8644C120.214 41.9234 121.599 41.0785 121.521 40.8019C122.125 41.4958 123.269 41.6016 124.549 41.59C124.662 41.3862 124.774 41.1817 124.885 40.9777C123.698 41.453 124.495 40.7814 124.123 40.4122C123.907 40.1993 123.255 39.7849 123.029 39.4572ZM130.402 39.2013C129.775 39.6807 129.075 40.1596 128.437 40.6261C128.236 40.4816 128.035 40.336 127.833 40.1906C127.233 42.2955 128.575 40.2544 129.814 41.7863C129.36 40.5821 130.992 40.4915 131.092 40.3947C130.861 39.9977 130.624 39.6002 130.402 39.2013ZM106.97 40.255C107.014 40.6273 107.059 41 107.104 41.3722C108.378 41.0971 109.178 41.4668 108.927 40.2316H108.925C108.272 40.2424 107.603 40.249 106.97 40.255ZM101.166 38.3263C101.053 39.6518 100.361 39.7193 101.216 41.0236C101.405 41.0163 101.593 41.0097 101.78 41.0031C101.929 40.7236 102.077 40.4442 102.227 40.1652C102.255 40.1998 102.283 40.2334 102.311 40.2658C104.556 42.4738 105.648 39.5144 102.363 39.7208C102.06 39.7464 101.712 39.8091 101.313 39.921L101.312 39.924C101.264 39.3915 101.216 38.8588 101.166 38.3263ZM105.902 40.0128C105.548 39.5514 104.375 40.7723 105.066 40.8956C105.614 40.9904 106.09 40.2614 105.902 40.0128ZM96.8555 38.1163C96.7788 38.8111 96.7021 39.5065 96.626 40.2013C96.1895 38.4861 95.3859 40.0453 94.373 38.797C94.263 39.0033 94.1529 39.2098 94.043 39.4162C93.6749 38.9235 89.6415 38.5828 90.4609 39.7003C90.8215 40.1878 91.6847 39.595 91.7559 39.6124C91.9953 39.6776 92.2787 40.2931 92.6865 40.2804C92.9224 40.2719 93.4549 39.5942 93.9316 39.6222C95.0035 39.6851 96.7929 41.689 98.2705 39.9992C98.3534 40.216 98.4356 40.4336 98.5176 40.6505C99.5262 40.5966 99.2499 39.9072 100.109 40.7736C101.029 37.5109 96.3397 40.6579 97.4463 38.0431H97.4443C97.2486 38.0676 97.0513 38.0915 96.8555 38.1163ZM189.258 39.7023C188.869 39.7389 188.633 39.92 188.77 40.3966C188.934 40.3792 189.099 40.3612 189.265 40.3439C189.589 40.3025 189.906 40.2635 190.217 40.2267C190.292 40.1229 190.368 40.0188 190.443 39.9152C190.084 39.8035 189.605 39.6626 189.258 39.7023ZM86.6699 38.5695C86.3028 39.091 86.1164 39.7744 86.9941 40.1632H86.9961C87.127 38.9646 87.9347 39.9756 88.3262 39.9142C88.4342 39.7885 88.5425 39.6629 88.6504 39.5372C87.9939 39.2148 87.3332 38.8924 86.6699 38.5695ZM82.3203 39.3507C83.3243 39.6112 83.1438 39.2316 84.0215 40.0148C85.4251 39.1915 84.2689 39.2589 84.3105 38.4484C83.9886 38.6701 83.6651 38.8922 83.3408 39.1134C82.626 38.3172 83.3589 37.9733 83.3652 37.8995L83.3633 37.8986C83.3761 37.656 83.4026 37.6057 83.1211 37.4435C82.8556 38.0792 82.5886 38.7154 82.3203 39.3507ZM90.0898 38.9728C89.9487 38.5066 88.616 38.9021 88.6738 39.1369C88.6997 39.23 90.3668 39.8877 90.0898 38.9728ZM78.8125 39.2042C79.7608 39.2191 80.702 39.229 81.6367 39.2355C81.6574 39.0325 81.6786 38.8291 81.6992 38.6261C80.7243 39.3171 80.3913 38.4938 80.1758 38.4308H80.1787C79.485 38.2273 78.8192 38.0656 78.165 37.7775C78.3796 38.2532 78.596 38.7291 78.8125 39.2042ZM216.398 38.1515C216.586 38.1852 216.77 38.2084 216.954 38.2267C217.024 38.4754 217.202 38.8326 217.982 38.3829C218.099 38.5217 218.218 38.6607 218.335 38.799C218.2 38.8999 217.832 38.9233 217.407 38.8849L218.577 39.0919C218.054 39.0435 217.588 38.9615 217.216 38.8624C216.987 38.833 216.75 38.7899 216.529 38.7296L217.094 38.8292C216.426 38.6333 216.111 38.3768 216.398 38.1515ZM64.0957 36.6818C64.1335 36.7935 64.1524 36.9022 64.1562 37.0079C64.1423 37.1094 64.1274 37.2112 64.1133 37.3126C64.4506 37.291 64.7872 37.2692 65.123 37.2443C65.0937 37.4525 65.0645 37.6611 65.0352 37.8693C65.8352 37.2292 68.5773 37.9179 68.4043 38.6417C68.5914 38.3472 68.7779 38.0513 68.9629 37.756C70.1922 38.7624 71.419 37.9735 72.7578 38.9367C72.8912 38.6869 73.0249 38.4367 73.1572 38.1867C73.2095 38.4026 73.2617 38.6192 73.3145 38.8351C73.8275 38.9071 74.3379 38.9765 74.8467 39.0441C76.5718 38.3311 73.4423 36.981 73.0391 37.0626C72.9853 37.0754 72.9446 37.6191 72.6084 37.674C72.0168 37.7782 68.7869 36.8921 67.7031 37.1046C67.7399 36.7449 67.7766 36.3843 67.8135 36.0245C67.3229 36.3329 66.8313 36.6389 66.3291 36.9406C66.3398 36.3438 64.8178 37.0488 65.3545 35.6847C64.939 36.0195 64.5191 36.352 64.0957 36.6818ZM75.6406 37.6906C75.6881 39.1402 75.8999 39.3286 77.4326 38.4191C77.3871 38.238 77.3412 38.0562 77.2959 37.8751C76.5337 37.9282 76.0631 38.2264 76.2529 37.4865C76.0492 37.5548 75.845 37.6228 75.6406 37.6906ZM218.645 38.3331C218.033 38.2856 217.494 38.2804 216.954 38.2267C216.927 38.1295 216.915 38.0484 216.891 38.0392C216.836 38.0208 216.781 38.0062 216.727 37.9933L218.645 38.3331ZM34.2314 36.922C34.2859 37.2333 34.3401 37.5453 34.3945 37.8566C34.6199 38.0507 35.8096 36.7215 35.4463 36.4533C35.0413 36.6096 34.6292 36.7659 34.2314 36.922ZM29.3926 36.1652C29.1576 36.0029 28.9211 35.8404 28.6846 35.6779C28.3954 36.1971 28.1016 36.7164 27.8174 37.2355C29.0097 37.6217 30.2687 38.0597 30.0996 36.5031C30.3677 36.5094 30.6477 36.5164 30.9219 36.5226C30.6751 37.1587 30.7037 37.3709 31.4121 37.7941C31.5936 36.9058 32.3033 37.3759 33.1689 37.1974C32.5441 37.1324 31.9417 37.0671 31.3242 37.0011C31.3277 36.844 31.3315 36.6865 31.335 36.5294C32.7049 36.6164 31.0227 35.5805 30.1104 36.1847C30.0455 35.9737 29.9809 35.7619 29.916 35.5509C29.7422 35.7555 29.5676 35.9607 29.3926 36.1652ZM41.8076 36.2394C39.9625 37.1101 41.1174 36.3876 39.1416 36.3585C39.2731 36.8347 39.4052 37.3112 39.5361 37.7872C40.5112 36.9358 42.1035 37.5322 41.8096 36.2394H41.8076ZM22.459 37.3947C23.513 37.1409 23.0037 36.387 24.3428 36.1906C23.6541 36.1171 22.9781 36.0428 22.2959 35.9679C22.35 36.4431 22.4047 36.9195 22.459 37.3947ZM18.3604 36.5421C18.6244 36.6287 18.8959 36.7154 19.165 36.8019C19.3178 36.4943 19.471 36.1867 19.623 35.879L19.6211 35.8781C19.2033 36.0996 18.7728 36.321 18.3604 36.5421ZM223.684 35.8117C224.364 35.8687 225.052 35.9171 225.742 35.9542C225.716 36.1093 225.689 36.265 225.663 36.4201C223.8 35.4338 224.469 37.2102 223.684 35.8117ZM205.213 34.8693C205.144 33.7954 207.19 34.4496 207.365 34.6603C207.399 34.7067 207.335 35.4807 207.351 35.6603C207.036 35.5368 206.716 35.4139 206.415 35.3019C206.435 35.5604 206.452 35.8193 206.469 36.0773C206.088 36.0178 205.707 35.9629 205.341 35.9181C205.567 35.7479 205.794 35.5786 206.023 35.4113C205.759 35.2289 205.474 35.0431 205.213 34.8693ZM208.098 35.1779C209.476 34.3447 208.181 36.894 207.681 35.7921C207.658 35.7331 207.997 35.2399 208.098 35.1779ZM217.71 34.3244C219.062 34.0933 221.549 35.444 223.058 35.4445C221.878 36.3098 220.587 35.2399 219.607 34.9796C218.656 34.7259 218.469 34.8448 218.47 35.0519C218.439 35.0485 218.409 35.047 218.38 35.0451L218.471 35.0607C218.477 35.2667 218.655 35.5541 218.46 35.6525C218.363 35.7 218.127 35.3909 217.842 35.1261C217.808 35.1417 217.775 35.1584 217.743 35.1788C217.761 35.1483 217.782 35.1199 217.803 35.0919C217.723 35.0204 217.64 34.9523 217.556 34.8986L217.919 34.963C218.154 34.75 218.518 34.6263 218.981 34.549L217.71 34.3244ZM204.769 33.7199C204.868 33.9465 203.969 35.0136 204.786 35.6378C204.106 35.4363 203.434 35.2577 202.763 35.1007C203.126 34.9835 203.508 34.8767 203.881 34.7716C203.935 34.3989 203.988 34.0252 204.038 33.6515C204.277 33.6707 204.524 33.6943 204.769 33.7199ZM218.47 35.0519C218.616 35.0683 218.771 35.101 218.929 35.1427L218.471 35.0607C218.471 35.0578 218.47 35.0547 218.47 35.0519ZM201.789 35.005C201.592 34.848 201.405 34.6952 201.207 34.5421C201.533 34.4559 201.864 34.375 202.197 34.298C202.06 34.5331 201.924 34.7689 201.789 35.005ZM194.151 34.1935C194.181 33.4628 193.717 33.1564 193.103 33.6525C193.121 33.8658 193.139 34.0798 193.157 34.2931C193.484 33.6873 193.838 34.7877 194.756 34.713C194.784 34.3462 194.813 33.9783 194.842 33.6115C194.601 33.803 194.382 33.9986 194.151 34.1935ZM212.164 32.7638C213.093 33.0496 214.122 33.3679 215.36 33.6574C215.213 33.8062 215.065 33.9548 214.915 34.1017C214.347 33.951 213.829 33.7956 213.351 33.6456C213.407 33.9749 213.464 34.3039 213.54 34.6378C213.257 34.6208 212.997 34.6089 212.731 34.5929C212.509 33.9755 212.321 33.3644 212.164 32.7638ZM202.485 33.8019C201.71 35.4294 201.605 31.4223 202.455 33.1056C202.538 33.2771 202.562 33.645 202.485 33.8019ZM27.875 27.1154C28.6535 26.8842 30.0783 27.6352 30.2021 27.6486C30.2494 27.6528 30.5474 27.3032 31.0303 27.3331C31.7041 27.3739 31.9888 27.6893 32.0439 27.6906C32.2131 27.6947 32.1098 27.3632 32.2715 27.3683C33.4871 27.4087 34.4174 27.3341 35.542 27.3517C36.7977 27.3716 37.4313 27.995 38.3555 27.3361C38.4544 27.6003 38.5538 27.8658 38.6523 28.13C39.3636 27.0066 43.4306 27.187 45.0781 27.2638C45.601 27.2888 45.5031 27.7491 45.6777 27.7511C45.7946 27.7517 45.7335 27.1477 47.1123 27.2804C47.7988 27.3476 47.9579 27.7893 48.3125 27.7785C48.501 27.7714 48.4752 27.3346 48.7441 27.337C50.2806 27.3516 51.5659 27.5047 53.0693 27.5997C53.499 27.6262 53.4983 27.9903 53.5938 27.9865C53.9347 27.973 54.5695 27.3623 55.4434 27.3732C56.9034 27.3906 59.8293 27.4355 60.9854 27.7677C61.1531 27.8167 61.2797 28.2567 61.4121 28.254C61.6076 28.2482 61.6947 27.7946 61.7285 27.7931C62.3568 27.8048 61.9569 28.2162 62.3945 28.1281C62.6306 28.0809 62.8685 27.569 63.4072 27.5353C64.0802 27.4914 63.9301 28.1027 64.1953 28.0578C64.2246 28.0493 64.255 27.6204 64.5322 27.6261C64.863 27.6324 65.296 27.6501 65.5381 27.6662C66.4512 27.7691 67.4225 27.8658 68.1367 27.962C68.452 28.0041 68.6516 28.3217 69.0928 28.382C69.9872 28.5295 75.0328 28.837 75.4277 29.0177C75.4701 29.0386 74.9716 29.6331 75.6855 29.672C75.9138 29.4258 76.1415 29.1788 76.3672 28.9318C76.6787 29.3789 76.9935 29.8258 77.3086 30.2716C77.4041 28.8189 79.4334 28.7313 79.3193 30.216C79.5372 30.2904 79.7543 30.3647 79.9717 30.4386C80.4955 29.4391 80.7801 29.8374 81.7012 29.2843C81.8211 29.6072 81.9422 29.9303 82.0625 30.2531C82.109 30.045 82.1557 29.8361 82.2021 29.6281C82.6113 30.7928 83.4483 29.6944 83.543 29.6906C83.9054 29.6845 84.162 29.9879 84.332 29.9874C84.9663 29.9904 86.3522 29.6594 87.0781 29.88C87.1122 29.8912 87.0548 30.3767 87.2607 30.4474C87.6327 30.5745 87.7045 29.8639 88.166 30.7257C88.2776 30.5205 88.3894 30.3147 88.501 30.1095C88.6031 30.2234 88.7055 30.3374 88.8076 30.4513C89.445 30.4264 90.0814 30.4014 90.7168 30.3771C90.1004 31.1733 90.7399 31.6671 91.3965 31.0499C91.6186 30.8404 91.457 30.3284 91.5312 30.256C91.6384 30.1573 94.4466 30.5618 94.6152 30.8986C94.7573 30.7481 94.8998 30.5977 95.042 30.4474C95.0911 30.7673 95.1405 31.0875 95.1895 31.4074C95.2691 31.3013 95.349 31.195 95.4287 31.089C96.1256 31.6868 98.0978 30.5323 98.4346 30.6583C98.6126 30.7267 98.357 32.0587 99.2363 31.9845C99.2936 31.6171 99.3516 31.2494 99.4092 30.882C99.613 30.8438 99.817 30.8062 100.021 30.7687C100.396 30.8307 100.886 31.5139 100.868 31.9533C101.006 31.7002 101.145 31.4472 101.283 31.1945C101.456 31.8213 102.358 31.9209 103.12 31.7599C103.455 31.6966 103.763 31.587 103.982 31.4494C104.166 31.7263 104.351 32.0031 104.534 32.2794C104.839 31.9905 105.141 31.7007 105.439 31.4103C106.076 31.3689 105.37 31.8331 105.498 31.8888C105.768 32.0038 107.343 31.2423 107.154 32.3312C107.355 32.3493 107.556 32.3665 107.755 32.3839C107.88 32.0776 108.006 31.7706 108.13 31.464C108.383 32.5703 109.048 32.2359 110.239 32.7052C110.357 32.462 110.474 32.2182 110.59 31.9747C110.943 32.3514 111.324 32.7289 111.688 33.1037C111.788 32.6947 111.888 32.2852 111.987 31.8761C112.156 31.8252 112.324 31.7742 112.49 31.7228C112.775 32.6645 113.431 31.6921 113.729 32.0861C114.16 32.6613 113.784 33.3132 112.925 33.4035C112.972 34.0855 115.476 33.8715 116.085 33.8322C116.05 33.6996 116.015 33.5663 115.979 33.4337C115.368 33.5219 114.786 33.6076 114.189 33.6896C113.769 31.9755 115.315 32.4894 116.083 32.2882C116.151 32.2682 116.553 31.637 117.275 31.7101C117.555 31.7402 118.682 32.6923 118.892 32.7462C120.618 33.18 119.358 31.8393 121.054 33.006C120.691 32.1082 121.68 32.8512 122.698 32.6525C122.86 32.6212 124.327 31.845 124.418 31.8185C125.027 31.6765 124.381 32.5022 125.276 32.255C125.376 32.0407 125.475 31.826 125.573 31.6115C125.783 31.6011 125.991 31.5906 126.196 31.5792C127.569 33.3723 127.803 31.9702 128.223 31.7628C128.399 31.6788 128.201 32.1825 128.674 32.0421C128.851 31.9892 129.02 31.5693 129.489 31.4992C130.973 31.2739 131.698 32.9392 132.854 30.9747C133.101 31.207 133.348 31.4393 133.594 31.6701C133.694 31.3398 133.792 31.0091 133.887 30.6788C135.121 31.422 134.584 30.5543 134.975 30.507C136.021 30.3829 138.149 30.1723 138.479 30.8683C139.032 29.0041 140.468 30.6869 140.796 30.546C140.96 30.2959 141.121 30.0453 141.276 29.796C141.557 29.9493 141.843 30.1017 142.127 30.2531C141.639 28.6269 143.223 29.9734 143.338 29.9728C143.489 29.9628 145.176 29.0612 145.802 28.9445C146.447 28.8147 147.571 29.084 147.65 29.0773C147.699 29.0696 147.944 28.9192 148.261 28.7658C148.723 28.5874 149.292 28.3841 149.796 28.3078C150.732 28.1776 155.52 27.9919 155.091 27.3117C154.746 27.1561 154.296 27.0479 153.896 27.0167C153.211 26.9487 150.704 27.2427 148.088 27.4288C146.469 27.5137 144.736 27.8191 143.967 27.9357C140.414 28.5222 136.513 29.4191 132.736 29.7189C132.512 29.738 132.418 29.3079 132.234 29.3204C131.957 29.3426 131.269 29.8645 130.982 29.8849C129.929 29.9618 128.635 29.9986 128.057 30.0294C126.8 30.1002 125.922 29.8829 124.951 29.8839C124.669 29.8857 123.151 30.4876 122.125 30.2745C121.934 30.1546 121.742 30.0341 121.55 29.9132C122.097 29.7631 123.457 29.3573 124.111 29.2882C125.048 29.1916 125.595 29.5188 125.942 29.4943C126.23 29.4762 127.733 28.9755 128.419 28.9074C128.635 28.8872 128.717 29.3417 128.9 29.3253C129.882 29.233 131.221 29.0816 132.021 28.5275C131.684 28.7219 133.908 28.7178 134.038 28.6896C134.237 28.6601 134.389 28.2028 134.78 28.1417C135.565 28.0168 135.598 28.9267 136.42 27.8683C136.705 28.0845 136.983 28.3014 137.271 28.5148C137.074 27.3421 140.384 28.3389 140.905 26.713C140.892 26.561 136.966 26.9062 136.64 26.9191C134.714 27.1338 131.906 27.8186 130.009 27.7843C129.422 27.7838 127.603 27.1979 127.482 27.216C127.272 27.2515 127.492 27.6544 127.401 27.6759C125.498 28.1111 126.417 27.2081 126.146 26.9826C125.973 26.8301 125.329 27.3447 125.255 27.3478C125.122 27.3538 125.147 27.1156 125.143 27.0538C124.271 27.1362 125.104 27.8367 124.478 28.0236C124.379 28.0563 122.841 27.7446 122.245 27.7833C121.287 27.8493 120.372 27.8053 120.011 27.8185C119.392 27.841 118.327 28.3887 117.323 28.3986C116.926 28.402 116.796 27.9568 116.392 27.9581C113.803 27.9896 108.621 28.2909 106.353 27.8068C105.783 27.69 105.311 27.0679 105.005 27.088C104.751 27.2777 104.494 27.4669 104.235 27.6554C104.011 26.8716 103.813 26.6655 103.602 26.7072C103.291 26.7708 102.957 27.3952 102.479 27.4601C101.976 27.5282 101.792 26.9475 101.725 26.9425C101.281 26.9165 101.041 27.1667 100.691 27.1837C100.299 27.2018 99.7581 26.907 99.6152 26.9425C99.5278 26.9678 99.7445 27.7314 98.2383 27.6134C96.7019 27.4948 95.1856 27.3266 93.6182 27.2072C94.0185 29.4953 94.5511 27.9738 95.1953 27.9279C95.3677 27.9156 95.2387 28.2679 95.3887 28.2609C95.8125 28.2424 96.6385 27.9396 96.9824 28.047C97.3527 28.163 97.1713 28.9852 97.666 28.7101C97.6908 28.6945 97.6382 28.347 97.7539 28.297C98.918 27.8052 99.2463 28.4262 100.662 28.5538C101.035 28.5883 102.174 28.6277 103.412 28.6964C105.349 28.8089 107.481 28.9032 107.597 29.046C108.277 29.9629 105.331 29.9929 103.304 29.8312C102.54 29.7732 101.918 29.7011 101.723 29.6574C101.481 29.6033 101.769 29.247 101.553 29.1554C101.459 29.1188 100.551 29.7689 99.707 29.7667C98.6875 29.7614 96.6686 29.1346 95.6895 29.0958C87.2874 28.7449 78.8901 28.1368 70.3047 27.1427C70.1213 27.1212 69.8272 27.5247 69.2285 27.4503C68.0419 27.3013 66.8505 27.1293 65.6562 26.9308C56.7098 26.2648 45.9564 26.282 36.1172 26.216C33.687 26.2169 31.251 26.5734 28.8135 26.1886C28.4972 26.4975 28.1856 26.8067 27.875 27.1154ZM103.019 32.8341C102.747 32.8367 102.497 32.9243 102.296 33.1876C102.52 33.2576 102.743 33.3277 102.965 33.3986C103.241 33.4809 103.516 33.5627 103.789 33.6437C103.982 33.4519 104.174 33.259 104.365 33.0665C103.918 33.0023 103.444 32.834 103.019 32.8341ZM197.157 33.2882C197.426 33.3462 197.688 33.406 197.943 33.4669C197.943 33.0955 197.941 32.7234 197.938 32.3517C197.777 32.3297 197.615 32.3081 197.45 32.2872C197.352 32.6206 197.254 32.9545 197.157 33.2882ZM205.15 29.7042C205.674 30.2401 206.565 30.1164 207.582 30.5509L207.583 30.5538C207.634 30.577 207.583 30.9806 207.748 31.0587C207.858 31.0922 210.934 31.8615 210.483 32.4113C209.069 32.4815 209.017 31.4782 208.209 32.7687C208.271 32.4543 208.333 32.1393 208.394 31.8244C207.543 30.9111 206.871 31.8373 206.188 32.0245C206.268 31.8003 206.347 31.575 206.427 31.3507C206.054 31.1974 205.689 31.0527 205.312 30.9103C205.32 31.0765 205.327 31.2434 205.333 31.4093C205.2 31.3673 205.063 31.3244 204.935 31.2853C204.824 30.5144 204.434 30.2294 205.15 29.7042ZM202.735 29.3849C203.458 29.7072 203.992 29.4199 204.45 30.2374C204.361 30.3491 204.273 30.4613 204.185 30.5734C204.008 30.3865 202.292 29.5687 202.735 29.3849ZM208.631 28.8761C209.109 28.9134 208.93 29.4394 209.017 29.5031C209.289 29.6959 209.618 29.5842 209.911 29.7091C209.085 30.8005 208.627 29.9738 208.631 28.8761ZM109.372 29.0695C113.12 29.3989 117.139 29.7648 120.794 29.3947C120.975 29.6502 121.156 29.9055 121.336 30.1603C116.938 30.1886 112.539 29.9864 108.169 29.6447C108.553 29.4532 108.975 29.2624 109.372 29.0695ZM206.578 28.6593C206.794 28.5639 207.021 28.4733 207.245 28.3829C207.185 28.751 207.123 29.1193 207.06 29.4865C206.592 29.2737 206.131 29.0723 205.661 28.8771C205.773 28.6356 205.885 28.3936 205.997 28.1525C206.193 28.32 206.39 28.4903 206.578 28.6593ZM204.598 27.6163C204.648 27.9429 204.696 28.2693 204.738 28.5949C204.285 28.4677 203.832 28.3486 203.37 28.2355C203.568 27.9693 203.769 27.7039 203.97 27.4396C204.179 27.4966 204.384 27.5548 204.598 27.6163ZM199.738 26.0665C199.838 26.1461 200.263 27.6503 201.254 26.4913C201.752 27.0129 202.213 27.5386 202.679 28.0753C201.881 27.2306 200.431 27.6434 199.969 27.5451C199.796 27.5065 199.831 27.0708 199.689 27.0412C198.847 26.8723 197.939 27.7567 198.02 26.3107C198.77 26.8253 199.611 25.9692 199.738 26.0665ZM87.668 26.4308C87.485 26.2892 82.0921 26.4569 84.4707 27.8136C85.1083 27.8071 85.7462 27.8 86.3828 27.7921C85.9585 25.7282 87.5965 27.6352 87.7373 27.6857C88.4068 27.9179 89.295 27.4746 89.7861 27.5236C90.2084 27.5665 90.4422 27.945 90.7402 27.9503C91.7552 27.9685 93.3526 28.0383 93.6182 27.2072C92.8319 27.1473 92.0321 27.0972 91.2119 27.0773C90.3441 27.056 89.6207 26.2226 87.9375 27.2355C87.5404 27.0983 87.7148 26.4682 87.668 26.4308ZM83.6211 26.0753C82.4165 26.8183 79.5392 25.1913 78.5352 26.087C78.4699 26.1464 79.0051 26.5924 78.041 27.3165C78.7411 27.2034 79.2353 27.07 79.3271 26.4542C79.5168 26.6774 79.7083 26.9004 79.8984 27.1232C80.2462 26.9855 80.594 26.8469 80.9414 26.7081C80.8677 27.323 80.8972 27.2927 81.4404 26.9005C81.6676 27.0705 81.896 27.2398 82.124 27.4093C82.2389 27.154 82.3533 26.8982 82.4678 26.6427C82.6517 27.0194 82.8364 27.3962 83.0215 27.7726C83.8417 27.419 83.3934 26.6846 83.6211 26.0753ZM218.63 26.9913C218.691 26.6586 219.153 26.7177 219.674 26.7882C219.685 26.7873 219.717 26.7971 219.729 26.798C220.247 26.9631 220.814 27.2019 221.079 27.1896C220.557 27.7912 220.1 27.5198 219.612 27.2296L219.634 27.2335C219.305 27.1103 218.983 26.9651 218.63 26.9913ZM27.4971 26.1603C26.9282 26.1333 21.7761 25.9759 22.1836 26.7892C22.397 27.1978 24.1662 26.9034 24.6953 26.9249C25.396 26.9547 27.2753 27.8749 27.4971 26.1603ZM146.536 26.1183C146.851 26.4727 147.154 26.8323 147.444 27.1964C147.303 26.6858 147.16 26.1753 147.012 25.6662C146.853 25.8152 146.694 25.9663 146.536 26.1183ZM216.321 26.2345C216.982 26.3905 217.644 26.521 218.302 26.5958C218.156 26.7776 218.002 26.9565 217.849 27.1339C217.313 26.8569 216.816 26.554 216.321 26.2345ZM76.4756 26.3263C76.7348 26.4794 76.995 26.6322 77.2559 26.7843C77.3437 26.5274 77.4324 26.2698 77.5195 26.0128H77.5176C77.1706 26.118 76.823 26.2228 76.4756 26.3263ZM18.3486 25.713C18.2232 26.5103 21.4557 26.7524 21.7764 26.6222C21.7126 26.5058 21.6165 26.2482 21.5283 26.1876C21.1101 25.8989 19.0243 25.9576 18.3486 25.713ZM67.3613 25.0372C68.0344 25.1609 68.7081 25.2769 69.3848 25.3878C69.3037 25.4828 69.2214 25.5783 69.1396 25.673C70.1338 26.0799 70.6383 25.4809 71.1729 25.6349H71.1709C71.2285 25.6524 71.2579 26.0433 71.4766 26.0802C71.9756 26.1667 73.407 26.4515 73.6172 26.0802C74.0594 25.2959 71.1345 25.3998 70.5996 25.2912C70.3583 25.2457 70.1051 24.876 69.959 24.8497C69.7981 24.8228 69.5231 25.2484 69.1279 25.1837C69.008 25.1636 67.8044 24.4641 67.2471 24.4591C67.285 24.6515 67.3226 24.8449 67.3613 25.0372ZM165.001 25.8634C165.335 25.8387 165.639 25.8166 165.968 25.7941C165.931 25.5768 165.561 25.6068 165.416 25.4699H165.418C165.253 25.3149 165.3 25.0262 165.01 24.9249C165.007 25.2375 165.004 25.5509 165.001 25.8634ZM100.778 24.9757C98.9196 25.0141 97.4379 24.3121 95.6709 25.0226C95.7072 26.2666 101.222 25.3213 100.778 24.9757ZM207.59 22.9298C207.466 21.6605 212.825 24.7416 213.332 24.9591C213.045 25.5902 211.985 24.4067 212.317 25.5704C211.861 24.8112 209.919 24.3641 209.543 24.0783C209.307 23.8965 209.438 23.3075 209.404 23.2755C209.266 23.1519 207.648 23.3491 207.59 22.9298ZM83.501 23.1749C83.3483 23.1548 81.5107 22.3864 81.3818 22.7062C80.9758 23.7359 82.2338 23.3881 82.626 23.8068C83.2586 24.4859 82.2458 24.9623 83.9014 24.6622C83.8235 24.8688 83.745 25.0759 83.667 25.2824C84.6212 25.4026 84.384 23.9294 84.5654 23.7511C84.6233 23.6981 85.211 23.8497 85.3242 23.7628C86.7299 22.6578 83.6398 23.194 83.501 23.1749ZM55.3545 24.4445C55.5475 24.8633 56.005 24.4665 56.1621 24.5363C56.1983 24.5545 55.8987 24.8984 56.2578 25.007C56.3624 24.7704 56.4669 24.5336 56.5703 24.297C56.1754 24.3462 55.7474 24.3947 55.3545 24.4445ZM35.5684 24.4425C35.2906 23.967 28.972 24.0003 28.7656 24.2179C28.713 24.2798 28.7779 24.4904 28.7549 24.6105C30.2582 23.9769 32.3262 24.8189 33.7412 24.8995C34.1314 24.9215 34.0224 24.5833 34.0439 24.5753L34.0469 24.5763C34.268 24.58 35.2501 25.4224 35.5684 24.4425ZM84.7139 24.7023C85.5918 24.6953 86.4706 24.6871 87.3496 24.6779L87.3467 24.6769C86.9536 23.2622 86.7804 24.6614 85.1543 24.0099C85.0077 24.2406 84.8607 24.4716 84.7139 24.7023ZM70.9961 22.0831C70.586 22.9916 73.0174 22.831 73.5703 22.9777C73.8448 23.0549 75.2739 24.1623 76.4736 23.714C76.4734 23.65 76.4729 23.5856 76.4727 23.5216C76.3407 21.6289 72.5885 22.642 70.9961 22.0831ZM198.947 23.5578C197.878 23.4087 196.977 23.7001 195.87 22.9923C197.032 22.4916 197.485 23.4648 198.659 22.7257H198.661C198.759 23.0028 198.855 23.2805 198.947 23.5578ZM174.385 22.1251C174.47 22.4896 174.555 22.8544 174.64 23.2189C174.973 22.8362 175.274 22.4555 175.594 22.0744C175.196 22.0904 174.799 22.1069 174.385 22.1251ZM14.5146 19.8644C15.2549 20.1328 16.0177 20.3675 16.8066 20.5734C23.3154 22.297 30.6492 21.9039 37.4395 21.9845C38.2734 21.9952 38.3414 22.4926 38.6406 22.4435C38.8362 22.4114 38.8061 22.0107 39.0674 22.0128C48.4245 22.1727 57.0449 21.3352 66.4062 22.2462C66.5513 22.2731 66.6971 22.2997 66.8428 22.3263C67.3854 22.4373 69.9968 23.6543 70.7314 22.4279C71.2804 21.5059 69.2548 22.0325 68.9326 21.9757C68.6924 21.9364 68.7445 21.478 68.584 21.4542C68.414 21.4294 68.5113 21.7613 68.3125 21.7384C67.7256 21.6717 67.1103 21.5238 66.54 21.4064C66.2292 21.3453 65.9105 21.3035 65.6523 21.2863C57.5447 21.0619 50.2704 21.1727 42.5752 20.9826C41.658 20.966 41.8467 20.5998 41.8018 20.5968C41.8012 20.5976 41.8004 20.5989 41.7998 20.5997C36.8393 20.5002 31.1595 21.221 25.9102 20.7531C22.8831 20.458 19.8583 20.1479 16.8359 19.8204C16.1586 19.7481 15.5069 19.6766 14.8428 19.6037C14.7328 19.6906 14.6265 19.7775 14.5146 19.8644ZM176.611 22.1193C176.625 22.9667 178.615 22.6944 178.635 22.3595C178.63 22.1635 177.961 22.1894 177.865 22.1183H177.864C177.824 22.0863 178.012 21.7564 177.698 21.6769C177.335 21.8241 176.991 21.9705 176.611 22.1193ZM100.787 22.2052C100.296 22.2986 99.8088 22.3936 99.3203 22.4904C99.3308 22.3326 99.342 22.1745 99.3525 22.0167C99.8313 22.0781 100.307 22.1407 100.787 22.2052ZM180.026 21.6056C179.958 21.5183 178.893 21.5827 178.824 21.6417C178.193 22.4223 180.45 22.2712 180.026 21.6056ZM165.14 20.4747C163.298 20.0105 164.161 20.8422 162.322 20.962C162.293 21.4249 164.953 20.8916 165.14 20.4747ZM76.5527 20.2384C77.1819 20.2073 77.6573 20.3691 77.4863 20.9376C77.1553 20.8882 76.8264 20.8383 76.4961 20.7872C76.5152 20.6044 76.5337 20.4212 76.5527 20.2384ZM240.264 19.3898C241.076 19.6291 241.868 19.8743 242.651 20.1261C240.637 19.2407 243.164 19.1527 243.368 19.882H243.366C243.915 21.8636 241.915 20.3988 241.762 20.3732C241.564 20.3357 240.829 21.4244 240.264 19.3898ZM217.915 19.9113C218.015 19.7268 219.001 19.9594 219.139 20.005C220.68 20.5205 218.932 21.313 217.915 19.9113ZM187.29 19.714C186.399 19.2818 186.058 21.3398 187.111 20.4298C187.145 20.3935 187.327 19.7377 187.29 19.714ZM235.524 18.0568C235.73 18.055 235.561 18.3446 235.646 18.3576L235.649 18.3585C236.942 18.5263 239.83 18.9403 239.857 20.0158C239.016 19.8553 234.99 19.1963 234.816 18.4874C235.054 18.3431 235.288 18.1992 235.524 18.0568ZM200.599 17.7277C201.069 18.062 201.494 18.3956 201.953 18.7413C201.657 18.7454 201.374 18.7538 201.088 18.7638C201.74 19.0789 202.412 19.4107 203.06 19.7521C201.99 19.4026 200.901 19.0851 199.807 18.799C200.066 18.4402 200.323 18.0819 200.599 17.7277ZM32.5234 19.4845C33.4998 19.5055 34.4735 19.5248 35.4531 19.5431C35.5451 19.5448 35.981 19.1679 35.6641 19.0685C34.608 19.2083 33.5729 19.3477 32.5234 19.4845ZM22.4453 18.7413C22.2829 19.184 23.231 19.2066 23.542 19.2462C24.9044 19.4221 26.6622 19.2775 28.0791 19.3761C27.9767 19.2261 27.8741 19.075 27.7715 18.9249C25.9864 18.8685 24.2166 18.8081 22.4453 18.7413ZM228.543 18.3165C229.37 19.0724 229.483 16.4616 230.142 17.3078C230.255 17.4496 229.753 18.3018 230.656 17.8312C230.653 17.6181 230.649 17.4046 230.646 17.1915C230.824 17.2663 231.003 17.3398 231.183 17.4122C231.13 17.6181 231.078 17.8247 231.024 18.0304C231.333 17.936 231.69 17.8691 232.002 17.8644C232.118 17.854 232.46 17.9355 232.576 17.9308C233.588 18.0082 234.256 18.3546 233.286 19.0929C232.998 19.0641 232.71 19.0377 232.423 19.0138C232.318 19.018 232.008 18.9438 231.903 18.9533C230.833 18.9502 229.784 18.9102 228.711 18.8263C228.654 18.6566 228.598 18.4865 228.543 18.3165ZM198.299 18.423C200.262 18.5097 198.115 19.2992 197.679 18.7931C197.413 18.4854 198.1 18.4156 198.299 18.423ZM18.624 18.2921C19.0921 18.8519 20.2932 18.8119 21.0264 18.8478C20.5394 18.3656 19.3027 18.5506 18.624 18.2921ZM224.969 17.0851C225.059 17.0404 225.48 15.4335 225.829 17.2843C226.077 17.2327 226.322 17.1797 226.563 17.1242C226.542 17.496 226.522 17.8683 226.503 18.2404C225.702 17.7765 225.438 18.4695 225.369 18.4747C225.058 18.4742 225.363 18.1522 225.174 18.1027C224.688 17.978 223.488 17.9408 224.267 17.0099C224.547 16.677 224.882 17.1265 224.969 17.0851ZM198.018 17.5578C198.081 17.5381 199.232 17.6656 199.295 17.7062C200.489 18.6424 196.789 17.938 198.018 17.5578ZM193.238 17.3732C194.174 16.7157 196.073 16.7987 195.312 18.1212C194.359 17.417 193.702 17.9119 192.274 17.5011C192.486 17.2441 192.705 16.9875 192.931 16.7326H192.934C193.036 16.9457 193.138 17.1597 193.238 17.3732ZM220.707 15.1925C221.125 15.1534 222.325 15.5194 222.743 15.5529C222.982 15.6112 223.218 15.6684 223.452 15.7238C223.526 15.8873 223.05 16.2663 223.096 16.422C223.138 16.5593 224.109 17.3238 223.61 18.048C223.439 17.9686 223.264 17.8876 223.092 17.8068C223.087 17.572 223.082 17.3362 223.078 17.1017C222.851 17.2579 222.619 17.4131 222.388 17.5675C222.361 17.4637 222.327 17.3522 222.291 17.2384C221.933 17.2097 220.91 16.8977 220.553 16.9308C220.648 16.4372 220.864 15.894 220.684 15.4933C220.792 15.5507 220.86 15.6112 220.879 15.6632C220.87 15.7317 220.859 15.8004 220.847 15.8683C220.894 15.6647 220.938 15.46 220.979 15.255C220.958 15.2422 220.862 15.2145 220.707 15.1925ZM228.01 17.713C227.625 16.9665 228.777 17.0911 229.019 17.4376C229.067 17.5129 228.422 18.4891 228.01 17.713ZM18.0713 16.8478C17.6985 16.8858 17.3241 16.9237 16.9482 16.9611C16.5714 16.9977 16.2024 17.0345 15.8418 17.0714C16.1982 17.1384 16.5628 17.2053 16.9355 17.2726C17.3082 17.3408 17.6799 17.4082 18.0498 17.4757C18.0578 17.2656 18.0653 17.055 18.0732 16.8449C18.0727 16.8456 18.0719 16.847 18.0713 16.8478ZM210.234 16.7999C210.658 16.7976 211.1 16.8069 211.526 16.8146C211.653 17.0266 211.783 17.2408 211.911 17.4552C211.372 17.3752 210.841 17.3053 210.305 17.2413C210.282 17.0945 210.258 16.947 210.234 16.7999ZM205.926 15.8537C202.422 14.3226 207.314 14.5767 207.998 15.9347C207.999 15.9342 208.001 15.9342 208.002 15.9337C208.059 16.0499 207.761 16.4479 207.849 16.6662C207.539 16.3632 207.22 16.0617 206.906 15.7658C206.507 15.9335 206.094 16.1013 205.711 16.2794C205.625 16.1543 205.538 16.0285 205.45 15.9035C205.609 15.8862 205.768 15.87 205.926 15.8537ZM189.746 16.2091C189.496 16.2213 189.244 16.2348 188.99 16.2492C188.119 16.2998 187.269 16.3517 186.439 16.4054C186.476 16.2467 186.513 16.0875 186.55 15.9288C187.343 15.8771 188.155 15.8265 188.985 15.7775C189.242 15.7628 189.497 15.749 189.749 15.7365C189.748 15.8938 189.747 16.0518 189.746 16.2091ZM114.393 13.4679C114.092 13.3819 114.218 13.7652 114.192 13.7726C113.99 13.7533 113.817 13.4355 113.742 13.464C112.324 14.0223 113.226 14.3866 113.242 14.463C113.254 14.8412 112.86 15.2644 113.354 15.7199C113.668 15.6012 113.99 15.4817 114.315 15.3615C114.464 15.5774 114.613 15.7935 114.762 16.0089C115.401 15.5829 114.591 15.4288 114.521 14.8283C114.497 14.5925 115.091 14.3349 114.393 13.4679ZM130.648 11.7501C129.144 10.9356 127.633 12.0988 128.831 13.4689C128.355 13.3761 126.346 13.9076 126.207 13.8663C126.01 13.8115 126.041 13.2486 125.798 13.2492C125.646 13.2495 125.366 14.5566 124.149 13.4894C124.016 13.7058 123.881 13.9229 123.743 14.1388C123.6 13.9713 123.456 13.803 123.312 13.6349C123.576 13.0086 123.829 12.3811 124.071 11.7531C123.016 12.4697 122.058 11.2319 121.392 12.3029C120.791 12.1881 120.519 12.0668 120.762 11.5226C120.588 11.5242 120.411 11.5248 120.233 11.5255C120.118 11.8161 120.002 12.1074 119.884 12.3976C120.375 12.5517 120.84 12.703 121.327 12.8507C121.325 13.248 121.321 13.6458 121.318 14.0431C121.048 13.9399 120.803 13.8348 120.541 13.7296C120.452 13.9114 120.362 14.094 120.271 14.2755C120.599 14.727 120.92 15.1775 121.253 15.6261C121.654 15.4624 122.045 15.2959 122.426 15.1281C122.244 14.9231 122.061 14.7178 121.878 14.5119C122.817 14.2599 122.629 15.23 123.439 15.5734C123.697 15.1964 123.947 14.8182 124.19 14.4396C124.598 14.7921 125.006 15.1416 125.406 15.4894C126.035 15.2799 126.084 14.9933 125.617 14.5997C125.912 14.1 126.313 14.8326 126.676 14.6095C126.704 14.5861 126.615 14.1433 126.642 14.1359C128.566 13.6813 128.563 14.8578 128.885 14.882C129.107 14.8961 129.892 14.0005 129.87 13.7257C129.828 13.3551 127.941 12.1181 130.648 11.7501ZM117.508 14.0353C116.854 14.101 116.145 14.1597 115.48 14.215C116.131 14.5796 116.832 14.9406 117.484 15.2951C117.492 14.8753 117.5 14.4551 117.508 14.0353ZM112.832 11.4943C113.382 13.5146 117.649 11.6309 119.069 13.2658C119.221 12.9501 119.368 12.6337 119.518 12.3175C118.746 12.5978 118.196 11.9373 117.805 11.837C117.504 11.7579 117.53 12.0877 117.507 12.0851C117.506 12.0851 117.504 12.0851 117.503 12.0851C116.796 11.9346 116.578 11.6085 116.024 11.5509C114.67 11.4038 113.789 12.472 112.832 11.4943ZM195.028 12.088C194.173 11.898 193.035 13.3035 195.761 13.0783C195.77 12.9203 195.78 12.7616 195.789 12.6037C195.68 12.6213 195.354 12.7489 195.337 12.7365C195.29 12.6928 195.382 12.1695 195.028 12.088ZM124.271 12.297C124.425 12.4731 124.579 12.6489 124.732 12.8244C124.979 12.5985 125.219 12.3721 125.453 12.1447C125.311 12 125.168 11.8544 125.024 11.7091C124.779 11.9058 124.528 12.1021 124.271 12.297ZM100.352 10.8429C100.001 10.8044 98.7585 11.3639 98.7939 11.6037C99.273 11.9258 99.7497 12.2493 100.229 12.5744C100.262 12.1546 100.295 11.7344 100.327 11.3146C100.383 11.5286 100.438 11.7431 100.494 11.9572C100.791 11.8208 101.088 11.685 101.388 11.5499C101.505 11.9277 101.622 12.3058 101.737 12.6837C101.915 12.2765 102.093 11.8689 102.272 11.462C100.937 10.6098 100.932 11.3589 100.645 11.3292C100.499 11.3149 100.425 11.0488 100.383 10.9142C100.372 10.8906 100.362 10.8665 100.352 10.8429ZM210.051 6.62611C208.756 4.55632 211.904 5.99019 213.397 6.55189L213.4 6.55287C213.513 6.59361 213.419 6.26693 213.815 6.4181C213.857 6.43359 213.751 6.86094 214.077 6.98646C215.248 7.43188 216.697 8.15489 217.446 8.47767C218.356 8.85884 220.27 9.45837 221.355 9.86439C221.902 10.0681 222.216 10.2045 222.281 10.337C222.353 10.4714 222.204 10.6229 222.096 10.9249C222.008 11.1772 221.85 11.9547 221.827 12.0011C221.808 12.0554 221.794 11.9813 221.733 11.9581C221.678 11.9365 221.596 11.9683 221.567 12.2345C221.526 12.2196 221.478 12.2033 221.425 12.1828C221.653 11.8237 221.86 11.4551 222.034 11.0753C221.737 11.092 221.403 11.0131 221.28 11.1095C221.131 11.1953 221.067 11.407 220.697 11.7462C220.585 11.3239 220.444 10.8869 220.282 10.4415C219.508 10.5042 218.609 10.513 217.686 10.5236C217.966 10.3527 218.242 10.1802 218.514 10.007C217.504 9.0765 217.704 9.50182 216.786 9.82728C216.879 9.58186 216.973 9.33639 217.066 9.09095C215.596 9.21245 215.595 8.38335 215.314 8.27064C214.684 8.03764 213.052 10.7224 211.619 7.06556C210.211 8.20562 211.059 5.30576 210.051 6.62611ZM216.095 10.9181C216.175 11.1721 216.256 11.4278 216.331 11.6808C215.915 11.7456 215.505 11.8149 215.086 11.8839C215.229 11.5594 215.373 11.2346 215.517 10.9103C215.712 10.9132 215.905 10.916 216.095 10.9181ZM116.509 10.38C115.686 10.4025 114.922 10.4202 114.084 10.4279C114.037 10.5897 113.993 10.7524 113.948 10.9142C114.855 10.8048 116.49 11.4865 116.509 10.38ZM139.338 9.82435C139.063 10.2111 138.808 10.5944 138.558 10.9757C138.815 10.8951 139.067 10.8152 139.342 10.7306C139.34 10.4287 139.339 10.1264 139.338 9.82435ZM120.869 9.83217C120.695 9.76806 119.961 9.61518 120.049 10.0275C120.371 10.3194 120.691 10.6104 121.008 10.8995C121.148 10.7149 121.304 10.5292 121.449 10.3439C121.237 10.2851 120.916 9.85027 120.869 9.83217ZM85.2402 10.6486C85.4731 10.711 85.7057 10.7738 85.9395 10.8361C86.1046 10.7162 86.27 10.5956 86.4355 10.4757C86.2204 10.3376 86.0059 10.1989 85.792 10.0607C85.6081 10.2565 85.4241 10.4529 85.2402 10.6486ZM212.137 10.7824C211.488 10.5442 210.854 10.322 210.192 10.1037C212.801 10.5385 210.773 9.76259 212.451 9.80189C212.346 10.1285 212.242 10.4557 212.137 10.7824ZM83.2812 10.381C83.5654 10.5041 83.851 10.6275 84.1377 10.7501C84.2515 10.4923 84.365 10.2336 84.4785 9.97572C84.0785 10.1111 83.6788 10.2465 83.2812 10.381ZM177.336 8.09095C175.909 8.54047 177.814 8.87277 177.181 9.51967C177.454 9.45707 177.73 9.39536 178.009 9.33314C177.784 8.91923 177.559 8.50459 177.336 8.09095ZM174.668 6.92787C174.465 7.59921 173.916 8.45885 174.515 9.09974H174.517C174.624 9.21694 175.049 9.2673 175.188 9.43275C176.094 8.51407 175.694 7.61569 174.668 6.92787ZM170.383 8.08119C169.625 7.50675 169.454 8.84737 169.566 8.91713C170.211 9.29361 170.766 8.38137 170.383 8.08119ZM205.595 8.33607C205.719 8.14571 205.845 7.95558 205.971 7.76576C206.631 7.90202 207.339 8.05992 207.999 8.21888C207.749 7.4037 207.479 6.58761 207.185 5.77162C206.92 5.71181 206.677 5.65878 206.42 5.60365C206.142 6.51349 205.866 7.42452 205.595 8.33607ZM210.507 7.56459C210.391 7.80593 210.276 8.0475 210.161 8.2892C209.839 8.14519 209.498 7.999 209.182 7.86244C209.332 7.63107 209.482 7.39973 209.634 7.16908C209.925 7.29853 210.222 7.43195 210.507 7.56459ZM179.565 7.42982C179.462 7.3567 177.664 7.02811 177.517 7.13978C177.598 7.45205 177.68 7.76498 177.761 8.07728C178.583 6.8994 179.444 8.52437 179.849 8.17201C179.936 8.09413 179.739 7.54398 179.565 7.42982ZM205.19 6.17689C204.829 5.86437 203.803 5.89778 204.119 6.59291C204.178 6.71532 205.216 6.45581 204.45 7.47279C205.373 7.62613 205.398 6.35661 205.19 6.17689ZM178.673 5.55287C178.217 5.06638 177.454 5.14163 177.472 5.87123C177.897 6.06847 178.339 6.26645 178.765 6.46498C178.675 6.28037 178.747 5.63707 178.673 5.55287ZM204.679 5.70521C205.957 4.53365 201.888 3.72659 202.933 5.89564C203.119 5.98961 203.304 6.0838 203.486 6.17885C203.869 6.01557 204.285 5.86113 204.682 5.70619L204.679 5.70521ZM182.275 4.95033C182.674 6.38406 183.328 4.96655 184.022 6.13881C184.277 6.14295 184.534 6.14706 184.793 6.1515H184.795C184.795 5.75807 184.795 5.36427 184.795 4.97084C183.962 4.9622 183.127 4.95458 182.275 4.95033ZM198.843 4.93373C197.308 4.1874 198.195 7.32441 200.312 5.57338C198.366 5.62541 198.93 4.98272 198.843 4.93373ZM196.554 5.0558C196.165 4.70756 194.447 5.59612 195.919 5.93763C196.842 6.15984 196.612 5.10937 196.554 5.0558ZM186.833 4.74232C185.94 4.57546 185.631 5.83367 186.763 5.81947C187.243 5.8121 187.776 4.91771 186.833 4.74232ZM171.442 4.07045C168.396 4.7948 170.204 5.4828 171.185 4.66322C171.385 4.50062 171.49 4.28686 171.442 4.07045Z" fill="url(#paint0_linear_32_109)"/>
<defs>
<linearGradient id="paint0_linear_32_109" x1="0" y1="24.3123" x2="243.461" y2="24.3123" gradientUnits="userSpaceOnUse">
<stop stop-color="#1000EF"/>
<stop offset="1" stop-color="#090089"/>
</linearGradient>
</defs>
</svg>
