<svg width="1320" height="650" viewBox="0 0 1320 650" fill="none" xmlns="http://www.w3.org/2000/svg">
<g id="Frame 1">
<path id="Subtract" d="M1290 0C1306.57 0 1320 13.4315 1320 30V620C1320 636.569 1306.57 650 1290 650H30C13.4315 650 3.42283e-07 636.569 0 620V30C0 13.4315 13.4315 4.83195e-07 30 0H431C444.255 0 455 10.7452 455 24C455 40.5685 468.431 54 485 54H835C851.569 54 865 40.5685 865 24C865 10.7452 875.745 0 889 0H1290ZM79 23C62.4315 23 49 36.4315 49 53V65C49 81.5685 62.4315 95 79 95H363C379.569 95 393 81.5685 393 65V53C393 36.4315 379.569 23 363 23H79Z" fill="black"/>
</g>
</svg>
