<svg width="1320" height="650" viewBox="0 0 1320 650" fill="none" xmlns="http://www.w3.org/2000/svg">
<path d="M1280 0C1302.09 0 1320 17.9086 1320 40V610C1320 632.091 1302.09 650 1280 650H40C17.9086 650 0 632.091 0 610V40C0 17.9086 17.9086 0 40 0H426.491C442.486 0 455.05 14.1227 466.116 25.6714C473.397 33.2693 483.646 38 495 38H825C836.354 38 846.603 33.2693 853.884 25.6714C864.95 14.1227 877.514 0 893.509 0H1280ZM85 23C65.1178 23 49 39.1177 49 59C49 78.8822 65.1178 95 85 95H357C376.882 95 393 78.8822 393 59C393 39.1177 376.882 23 357 23H85Z" fill="#D9D9D9"/>
</svg>
